<?xml version="1.0" encoding="UTF-8"?>
<svg version="1.1" xmlns="http://www.w3.org/2000/svg" width="493" height="506">
<path d="M0 0 C1.08264809 -0.00262956 1.08264809 -0.00262956 2.18716785 -0.00531223 C4.61842542 -0.0099836 7.04962349 -0.00750381 9.4808836 -0.00507832 C11.23651242 -0.00694572 12.99214083 -0.00924614 14.74776858 -0.01194364 C19.58229206 -0.01807684 24.41679829 -0.01792626 29.25132477 -0.01674926 C34.46139203 -0.01654564 39.6714537 -0.02206035 44.88151836 -0.02680683 C55.09291469 -0.03512232 65.30430524 -0.03786208 75.51570467 -0.03841921 C83.81408269 -0.03889395 92.1124588 -0.04094662 100.41083622 -0.04411983 C123.92553205 -0.05292894 147.44022331 -0.05753882 170.95492081 -0.05678936 C172.22328024 -0.0567494 173.49163968 -0.05670945 174.79843426 -0.05666828 C176.70328983 -0.05660696 176.70328983 -0.05660696 178.64662733 -0.0565444 C199.23107217 -0.05613788 219.81549872 -0.06570828 240.39993826 -0.07980665 C261.52342181 -0.09416033 282.64689642 -0.10107738 303.77038497 -0.10021287 C315.63461433 -0.09988055 327.49882453 -0.10264308 339.36304951 -0.11339092 C349.46412025 -0.12248269 359.56516314 -0.1246821 369.6662362 -0.1178815 C374.82145403 -0.11460956 379.97661838 -0.11458385 385.13183117 -0.12323475 C389.85003232 -0.13107098 394.56813731 -0.12969786 399.28633603 -0.12095062 C400.99427091 -0.11940926 402.70221287 -0.12125558 404.41013942 -0.12681069 C406.73060979 -0.13385893 409.05074172 -0.12858654 411.37120056 -0.12025452 C413.30509139 -0.12058057 413.30509139 -0.12058057 415.27805072 -0.12091321 C421.4372623 0.30647384 426.47066475 2.22908959 431.87436199 5.12863445 C431.87436199 5.78863445 431.87436199 6.44863445 431.87436199 7.12863445 C432.53436199 7.12863445 433.19436199 7.12863445 433.87436199 7.12863445 C438.36559508 13.11694523 438.99899559 16.92935904 439.00299644 24.30391788 C439.00474948 25.03104799 439.00650252 25.7581781 439.00830868 26.50734246 C439.01298031 28.95683941 439.01050019 31.40627731 439.00807476 33.85577679 C439.00994215 35.6244927 439.01224256 37.39320821 439.01494008 39.16192305 C439.02107342 44.03258183 439.02092269 48.90322349 439.01974571 53.77388525 C439.01954209 59.02278853 439.02505673 64.27168626 439.02980328 69.52058697 C439.0381187 79.8078487 439.04085852 90.0951047 439.04141565 100.3823695 C439.04189038 108.74177824 439.04394292 117.10118508 439.04711628 125.46059322 C439.05592515 149.1463673 439.06053527 172.83213683 439.05978581 196.51791255 C439.05972587 198.43428728 439.05972587 198.43428728 439.05966473 200.38937664 C439.05962385 201.66851451 439.05958296 202.94765238 439.05954085 204.265552 C439.05913427 225.00263571 439.06870613 245.73970128 439.08280309 266.47677974 C439.09715416 287.75507015 439.10407398 309.03335169 439.10320932 330.31164706 C439.10287692 342.26359392 439.10564284 354.21552175 439.11638737 366.16746426 C439.12547567 376.34249109 439.12768139 386.51749028 439.12087794 396.69251941 C439.11760433 401.88609326 439.11758631 407.07961401 439.12623119 412.27318287 C439.13406 417.0252559 439.13270201 421.77723339 439.12394706 426.52930398 C439.12240406 428.25067993 439.12425813 429.97206289 439.12980714 431.69343059 C439.13684077 434.02962638 439.13159451 436.36548459 439.12325096 438.70166874 C439.12357701 440.64979908 439.12357701 440.64979908 439.12390965 442.63728559 C438.73110812 448.13285783 437.05082903 452.62863948 433.87436199 457.12863445 C433.21436199 457.12863445 432.55436199 457.12863445 431.87436199 457.12863445 C431.87436199 457.78863445 431.87436199 458.44863445 431.87436199 459.12863445 C421.63648769 466.34168226 407.74525266 464.27485315 395.7056303 464.26234722 C393.98648311 464.2642184 392.26733634 464.26652032 390.54819024 464.26921254 C385.85154897 464.2752986 381.15492558 464.27520075 376.45828128 464.27401817 C371.38258611 464.27381336 366.30689656 464.27934038 361.23120403 464.28407574 C351.29930113 464.29236421 341.36740417 464.29512972 331.4354981 464.29568812 C323.36283303 464.29616393 315.29016991 464.29822191 307.21750546 464.30138874 C284.31864706 464.31018871 261.41979335 464.31480889 238.52093326 464.31405827 C237.28775517 464.31401831 236.05457708 464.31397835 234.78402996 464.31393719 C232.93200003 464.31387587 232.93200003 464.31387587 231.04255535 464.31381331 C211.01676687 464.31340654 190.99099716 464.32298553 170.96521412 464.33707555 C150.39177883 464.35143655 129.8183527 464.35834596 109.24491227 464.35748178 C97.69872788 464.35714982 86.1525632 464.35989678 74.60638332 464.37065983 C64.78044154 464.37976094 54.95452842 464.38194309 45.12858425 464.3751504 C40.11673246 464.37188387 35.10493567 464.37183351 30.0930891 464.38050365 C25.50272851 464.38836304 20.91246657 464.38694295 16.3221084 464.37821952 C14.66415704 464.37668336 13.00619833 464.37850507 11.34825562 464.3840796 C-11.66446245 464.45631406 -11.66446245 464.45631406 -17.50063801 459.06613445 C-18.10649738 458.53890789 -18.71235676 458.01168133 -19.33657551 457.4684782 C-26.05736029 448.67863086 -25.69360555 439.43097536 -25.63357258 428.85837078 C-25.63818471 427.09159774 -25.64453973 425.32482853 -25.65248156 423.55806732 C-25.66915503 418.71579845 -25.66093748 413.87384557 -25.64853668 409.03157568 C-25.63948043 403.80449741 -25.65345879 398.5774732 -25.66445637 393.35040569 C-25.68223999 383.11559185 -25.67840227 372.88089536 -25.6668058 362.64607692 C-25.65777116 354.32780383 -25.65654762 346.00956363 -25.66090107 337.69128704 C-25.661514 336.50725035 -25.66212693 335.32321365 -25.66275844 334.10329705 C-25.66403735 331.69792643 -25.6653342 329.29255582 -25.66664881 326.88718522 C-25.67805415 304.33362356 -25.66494159 281.78012695 -25.64344734 259.22657597 C-25.62557642 239.87586237 -25.62868054 220.52524476 -25.64712238 201.17453289 C-25.66852987 178.70150675 -25.67695551 156.22853761 -25.66467333 133.7555027 C-25.66339914 131.35899576 -25.66214165 128.96248882 -25.66090107 126.56598186 C-25.66028397 125.38686397 -25.65966687 124.20774607 -25.65903106 122.99289733 C-25.65557781 114.6849085 -25.661406 106.37695582 -25.67081928 98.06897259 C-25.68203927 87.94388812 -25.67899913 77.81892769 -25.65769631 67.69385743 C-25.64718599 62.52818077 -25.64306389 57.3627109 -25.65629292 52.19703579 C-25.66822281 47.46709823 -25.66164424 42.73755891 -25.64038271 38.00765741 C-25.63591921 36.29782198 -25.63817726 34.58795283 -25.64788586 32.87813914 C-25.6936601 24.1459907 -25.60767891 16.91792719 -21.12563801 9.12863445 C-20.46563801 9.12863445 -19.80563801 9.12863445 -19.12563801 9.12863445 C-18.91938801 8.55113445 -18.71313801 7.97363445 -18.50063801 7.37863445 C-16.38469169 3.91617685 -13.20510011 1.84783768 -9.37567788 0.52339286 C-6.23174922 -0.02819393 -3.1921889 0.0017448 0 0 Z " fill="#DEEAF5" transform="translate(44.125638008117676,19.871365547180176)"/>
<path d="M0 0 C12.44388967 4.16251748 24.43360002 11.66370314 33.3125 21.375 C33.910625 21.931875 34.50875 22.48875 35.125 23.0625 C36.3125 24.375 36.3125 24.375 36.3125 26.375 C37.3025 26.705 38.2925 27.035 39.3125 27.375 C52.69134936 41.95243877 56.10441882 63.33784483 55.5859375 82.32421875 C54.86815647 98.2548051 48.46623871 112.45207476 39.3125 125.375 C38.6525 125.375 37.9925 125.375 37.3125 125.375 C37.02375 125.973125 36.735 126.57125 36.4375 127.1875 C35.3125 129.375 35.3125 129.375 33.3125 132.375 C32.6525 132.375 31.9925 132.375 31.3125 132.375 C31.3125 133.035 31.3125 133.695 31.3125 134.375 C29.1379852 136.11163305 26.96629305 137.723764 24.6875 139.3125 C24.07003906 139.75529297 23.45257813 140.19808594 22.81640625 140.65429688 C13.30125279 147.375 13.30125279 147.375 9.3125 147.375 C9.3125 148.035 9.3125 148.695 9.3125 149.375 C-6.76855764 155.78253941 -22.25658761 156.82895178 -39.25 154.0625 C-40.33776733 153.88618042 -40.33776733 153.88618042 -41.44750977 153.70629883 C-49.68387757 152.2211144 -56.69874441 149.05918688 -63.9375 144.9375 C-64.97777344 144.36418945 -64.97777344 144.36418945 -66.0390625 143.77929688 C-69.73914969 141.69179558 -72.94724875 139.70143901 -75.6875 136.375 C-75.6875 135.715 -75.6875 135.055 -75.6875 134.375 C-76.25339844 134.15714844 -76.81929687 133.93929687 -77.40234375 133.71484375 C-80.42974102 131.93980569 -82.08826645 129.69178996 -84.25 126.9375 C-87.1794605 123.1760008 -87.1794605 123.1760008 -90.41015625 119.68359375 C-92.41810843 117.62651736 -92.81086738 115.1023015 -93.6875 112.375 C-94.49211758 110.70451367 -95.30558989 109.03828022 -96.125 107.375 C-104.11093968 89.7492278 -104.10161644 67.98816985 -97.875 49.8125 C-94.13524038 40.154879 -89.49048472 31.27427144 -82.6875 23.375 C-82.0275 23.375 -81.3675 23.375 -80.6875 23.375 C-80.46964844 22.81167969 -80.25179687 22.24835938 -80.02734375 21.66796875 C-78.24790735 18.62269422 -75.99343111 16.89171755 -73.25 14.6875 C-72.28191406 13.89988281 -71.31382813 13.11226562 -70.31640625 12.30078125 C-67.6875 10.375 -67.6875 10.375 -64.6875 9.375 C-64.3575 8.715 -64.0275 8.055 -63.6875 7.375 C-56.97420412 3.64876639 -50.21423834 0.85615657 -42.61328125 -0.30078125 C-29.19246186 -2.56027011 -13.53185666 -3.39705985 0 0 Z " fill="#AFC0D3" transform="translate(184.6875,85.625)"/>
<path d="M0 0 C0 0.66 0 1.32 0 2 C0.99 2.33 1.98 2.66 3 3 C7.56027787 8.63835775 6.85487137 16.16336751 6.30175781 23.04638672 C5.61618363 27.4848694 3.44828813 30.27968381 0 33 C-5.0261345 36.25220468 -9.53660457 36.49593395 -15.33984375 35.76953125 C-19.85246176 34.46411899 -22.37232066 31.79204024 -25 28 C-28.01316574 22.10467573 -27.62435038 15.18418695 -26.375 8.8125 C-24.08188056 4.12202842 -21.09425095 0.23507107 -16.5625 -2.4375 C-10.10219717 -3.85561526 -5.76584488 -2.82408729 0 0 Z " fill="#292E36" transform="translate(294,299)"/>
<path d="M0 0 C1.66203712 -0.01902626 1.66203712 -0.01902626 3.35765076 -0.03843689 C4.55455032 -0.03550125 5.75144989 -0.03256561 6.98461914 -0.02954102 C8.82848961 -0.03740379 8.82848961 -0.03740379 10.70960999 -0.04542542 C13.97808371 -0.05350148 17.24613937 -0.04636676 20.5145874 -0.03509521 C23.83349703 -0.03236759 27.15216116 -0.06754228 30.47094727 -0.09399414 C32.99633746 -0.0956063 35.5217302 -0.09502834 38.04711914 -0.09204102 C39.24199448 -0.10327499 40.43686981 -0.11450897 41.66795349 -0.12608337 C43.33471886 -0.11201195 43.33471886 -0.11201195 45.03515625 -0.09765625 C46.50051064 -0.097407 46.50051064 -0.097407 47.99546814 -0.09715271 C51.32075544 0.54713654 52.54638299 1.7430539 54.58227539 4.40405273 C54.33227539 7.15405273 54.33227539 7.15405273 53.58227539 9.40405273 C52.92227539 9.40405273 52.26227539 9.40405273 51.58227539 9.40405273 C51.58227539 10.06405273 51.58227539 10.72405273 51.58227539 11.40405273 C49.05707051 12.66665517 47.28822846 12.54471483 44.46166992 12.56518555 C43.39361115 12.57479309 42.32555237 12.58440063 41.22512817 12.59429932 C40.06681488 12.59854919 38.90850159 12.60279907 37.71508789 12.60717773 C36.52881805 12.61287781 35.34254822 12.61857788 34.12033081 12.62445068 C31.60684097 12.63391022 29.09333868 12.64043844 26.57983398 12.64428711 C22.73016786 12.65399501 18.88103492 12.68501124 15.03149414 12.71655273 C12.59269524 12.72308232 10.1538925 12.72833296 7.71508789 12.73217773 C5.98369064 12.75069794 5.98369064 12.75069794 4.21731567 12.76959229 C3.14295258 12.76659119 2.06858948 12.76359009 0.96166992 12.76049805 C-0.45491409 12.76596649 -0.45491409 12.76596649 -1.90011597 12.77154541 C-4.89792173 12.33395887 -6.26985137 11.51901892 -8.41772461 9.40405273 C-8.87148375 6.29256145 -9.09929186 4.35710955 -7.22898865 1.74180603 C-4.74701503 -0.09131621 -3.07061426 0.01699658 0 0 Z " fill="#68849F" transform="translate(138.417724609375,143.595947265625)"/>
<path d="M0 0 C1.98 0 3.96 0 6 0 C6 12.21 6 24.42 6 37 C4.02 37 2.04 37 0 37 C-0.33 36.34 -0.66 35.68 -1 35 C-1.99 35.7734375 -1.99 35.7734375 -3 36.5625 C-6.97518818 38.46727767 -9.82575799 38.27765059 -14 37 C-17.76158894 34.32729207 -18.95696591 31.43289489 -20 27 C-20.49713926 21.53146813 -19.63823984 17.82161075 -17 13 C-14.80020711 10.54880221 -13.28669833 9.22158406 -10.00390625 8.65625 C-7.875 8.5625 -7.875 8.5625 -4 9 C-3.01 9.99 -2.02 10.98 -1 12 C-0.67 8.04 -0.34 4.08 0 0 Z " fill="#373E46" transform="translate(180,297)"/>
<path d="M0 0 C1.98 0 3.96 0 6 0 C6 12.21 6 24.42 6 37 C4.02 37 2.04 37 0 37 C-0.33 36.34 -0.66 35.68 -1 35 C-1.680625 35.515625 -2.36125 36.03125 -3.0625 36.5625 C-6.94111222 38.46054428 -8.87679425 38.17805879 -13 37 C-16.11905047 34.42339309 -17.7181368 32.8455896 -19 29 C-19.94855005 16.35874649 -19.94855005 16.35874649 -16 11 C-12.49398102 8.14324379 -8.30035653 8.72696149 -4 9 C-3.01 9.66 -2.02 10.32 -1 11 C-0.67 7.37 -0.34 3.74 0 0 Z " fill="#252931" transform="translate(344,297)"/>
<path d="M0 0 C18 0 18 0 24 3 C26.42166168 5.90599402 26.96330364 7.66361668 27.375 11.4375 C26.95972693 15.38259412 26.17955121 17.69309472 24 21 C18.51083289 25.1072113 13.63274682 24.21866198 7 24 C7 28.29 7 32.58 7 37 C4.69 37 2.38 37 0 37 C0 24.79 0 12.58 0 0 Z " fill="#2E333A" transform="translate(80,297)"/>
<path d="M0 0 C3.61106282 2.15127146 5.43153745 4.15076003 7 8 C7.6949651 13.34961508 7.65184874 17.71878006 5.1875 22.5625 C2.96082779 25.04364904 1.27168496 26.77376391 -2.0859375 27.37109375 C-6.50040984 27.49915865 -8.38423801 27.47464987 -12 24.6875 C-14.93105818 20.74889057 -15.1578884 17.85365736 -15.1875 13.0625 C-15.20167969 12.02222656 -15.21585937 10.98195313 -15.23046875 9.91015625 C-14.932278 6.14486622 -13.92629767 4.03745339 -11.4375 1.25 C-7.68077232 -0.67652702 -4.13258994 -0.67154587 0 0 Z " fill="#DAE6F1" transform="translate(288,302)"/>
<path d="M0 0 C2.76510067 2.37927267 4.28251647 3.95615045 5.6875 7.3125 C5.6875 9.6225 5.6875 11.9325 5.6875 14.3125 C-0.9125 14.3125 -7.5125 14.3125 -14.3125 14.3125 C-12.66172098 18.06420424 -12.66172098 18.06420424 -10.3125 21.3125 C-8.79321962 21.38429964 -7.27082518 21.39642007 -5.75 21.375 C-4.51056641 21.36146484 -4.51056641 21.36146484 -3.24609375 21.34765625 C-2.60800781 21.33605469 -1.96992188 21.32445312 -1.3125 21.3125 C-1.3125 20.6525 -1.3125 19.9925 -1.3125 19.3125 C0.6675 19.3125 2.6475 19.3125 4.6875 19.3125 C4.12600643 22.56916272 3.31520014 24.26873323 0.6875 26.3125 C-3.69514797 28.03425456 -8.60325028 28.00433917 -12.9375 26.25 C-16.86947126 23.04233923 -19.77699052 19.98147925 -20.80078125 14.87890625 C-21.09023592 9.44542853 -20.18973868 5.83081877 -16.66015625 1.65234375 C-11.89887049 -3.08134035 -5.72240308 -2.91518647 0 0 Z " fill="#3D444C" transform="translate(376.3125,307.6875)"/>
<path d="M0 0 C2.625 2.1875 2.625 2.1875 4.625 5.1875 C4.625 8.1575 4.625 11.1275 4.625 14.1875 C-1.645 14.1875 -7.915 14.1875 -14.375 14.1875 C-13.715 16.1675 -13.055 18.1475 -12.375 20.1875 C-9.96954362 21.39022819 -8.42503047 21.28821472 -5.75 21.25 C-4.93273437 21.24097656 -4.11546875 21.23195313 -3.2734375 21.22265625 C-2.64695313 21.21105469 -2.02046875 21.19945312 -1.375 21.1875 C-1.375 20.5275 -1.375 19.8675 -1.375 19.1875 C0.605 19.1875 2.585 19.1875 4.625 19.1875 C3.71280985 22.93761505 2.91030499 24.01282347 -0.4375 26.0625 C-4.82402265 27.63433728 -8.97396067 27.79296081 -13.375 26.1875 C-16.823884 23.30022968 -20.06269283 19.62795746 -20.6484375 15.05078125 C-20.87250477 9.42324571 -20.41196129 5.89490543 -16.72265625 1.52734375 C-11.91793396 -3.24952508 -5.7037345 -3.06311668 0 0 Z " fill="#30353E" transform="translate(150.375,307.8125)"/>
<path d="M0 0 C0.69891357 -0.00287018 1.39782715 -0.00574036 2.11791992 -0.00869751 C3.59392101 -0.01073675 5.06994921 -0.00521653 6.54589844 0.00732422 C8.80465138 0.0233817 11.06161518 0.0074728 13.3203125 -0.01171875 C14.75521228 -0.00973629 16.19011095 -0.00589256 17.625 0 C18.93082031 0.00338379 20.23664063 0.00676758 21.58203125 0.01025391 C24.8125 0.3984375 24.8125 0.3984375 26.73046875 1.77099609 C28.33956603 4.19117715 28.36680577 5.55762044 27.8125 8.3984375 C25.1222354 11.10921711 23.44958776 12.2974879 19.64624023 12.90014648 C17.90129272 12.89736694 17.90129272 12.89736694 16.12109375 12.89453125 C14.84685547 12.89517578 13.57261719 12.89582031 12.25976562 12.89648438 C11.60145752 12.88609131 10.94314941 12.87569824 10.26489258 12.86499023 C8.2519315 12.83596535 6.24159731 12.84440573 4.22851562 12.85742188 C-5.48488028 12.7934856 -5.48488028 12.7934856 -8.57006836 11.05883789 C-10.1875 9.3984375 -10.1875 9.3984375 -10.625 6.3984375 C-10.1875 3.3984375 -10.1875 3.3984375 -9.109375 1.73583984 C-6.15128353 -0.32264912 -3.56502452 0.00923809 0 0 Z " fill="#6A859F" transform="translate(140.1875,168.6015625)"/>
<path d="M0 0 C3.36780415 2.31208762 6.10756773 5.13071927 8.9375 8.0625 C9.71673828 8.81466797 10.49597656 9.56683594 11.29882812 10.34179688 C14.81071681 13.89677622 16.81062902 15.9226182 17.69140625 20.93359375 C17 24 17 24 14 26 C10.32944285 26.07058764 7.92700201 25.72000156 4.98828125 23.4375 C3.19393743 21.69047154 1.51545096 19.99449928 0 18 C0 17.34 0 16.68 0 16 C-0.598125 15.731875 -1.19625 15.46375 -1.8125 15.1875 C-3.99847854 14.00082594 -5.41332594 12.90400887 -7 11 C-7 10.34 -7 9.68 -7 9 C-7.66 9 -8.32 9 -9 9 C-10.32 3.6 -10.32 3.6 -9 1.125 C-5.70223176 -0.72999464 -3.75982286 -0.548852 0 0 Z " fill="#6D87A1" transform="translate(231,223)"/>
<path d="M0 0 C2 3 2 3 2 7 C-0.97 7 -3.94 7 -7 7 C-6.34 8.32 -5.68 9.64 -5 11 C-1.535 10.505 -1.535 10.505 2 10 C1.67 10.99 1.34 11.98 1 13 C-5.40956938 14.13110048 -5.40956938 14.13110048 -8.41015625 13.46484375 C-11.36767971 12.93400621 -13.34276479 13.30365624 -16.25 14 C-17.82453843 14.37267182 -19.40693784 14.71678895 -21 15 C-21.33 14.67 -21.66 14.34 -22 14 C-22.66 14.66 -23.32 15.32 -24 16 C-24 15.34 -24 14.68 -24 14 C-25.32 13.67 -26.64 13.34 -28 13 C-30.28571429 4.57142857 -30.28571429 4.57142857 -30 0 C-29.34 0 -28.68 0 -28 0 C-27.34 1.98 -26.68 3.96 -26 6 C-25.690625 5.38125 -25.38125 4.7625 -25.0625 4.125 C-24.375 2.75 -23.6875 1.375 -23 0 C-21.68 0 -20.36 0 -19 0 C-18.67 2.31 -18.34 4.62 -18 7 C-17.34 7 -16.68 7 -16 7 C-15.67 4.69 -15.34 2.38 -15 0 C-14.01 0 -13.02 0 -12 0 C-12 0.66 -12 1.32 -12 2 C-11.38125 1.690625 -10.7625 1.38125 -10.125 1.0625 C-6.1524801 -0.92375995 -4.43947023 -1.10986756 0 0 Z " fill="#D8E2EE" transform="translate(302,375)"/>
<path d="M0 0 C3.63 0 7.26 0 11 0 C11 0.66 11 1.32 11 2 C8.36 2 5.72 2 3 2 C3 3.98 3 5.96 3 8 C4.79093191 8.08086147 6.58289628 8.13912702 8.375 8.1875 C9.37273437 8.22230469 10.37046875 8.25710938 11.3984375 8.29296875 C12.68621094 8.14794922 12.68621094 8.14794922 14 8 C14.66 7.01 15.32 6.02 16 5 C17.9453125 4.70703125 17.9453125 4.70703125 20.125 4.8125 C21.40375 4.874375 22.6825 4.93625 24 5 C24.33 5.99 24.66 6.98 25 8 C22.69 7.67 20.38 7.34 18 7 C18 7.99 18 8.98 18 10 C19.7015625 10.2165625 19.7015625 10.2165625 21.4375 10.4375 C25 11 25 11 26 12 C26.25 14.4375 26.25 14.4375 26 17 C22.53001271 19.31332486 21.07490752 19.33957563 17 19 C16.01 18.34 15.02 17.68 14 17 C13.34 17.66 12.68 18.32 12 19 C7.98805634 19.27783543 4.02552638 19.0856495 0 19 C0 12.73 0 6.46 0 0 Z " fill="#E0E9F5" transform="translate(85,370)"/>
<path d="M0 0 C3.5 1.6875 3.5 1.6875 6 4 C6.875 6.75 6.875 6.75 7 9 C4.6875 9.1875 4.6875 9.1875 2 9 C1.54625 8.505 1.0925 8.01 0.625 7.5 C-1.07214589 5.63363079 -1.07214589 5.63363079 -4.5625 5.625 C-5.696875 5.74875 -6.83125 5.8725 -8 6 C-10.13749925 9.20624887 -10.29574999 10.22458103 -10.3125 13.9375 C-10.32925781 14.79214844 -10.34601563 15.64679688 -10.36328125 16.52734375 C-9.9264242 19.50079009 -9.08401365 20.85741922 -7 23 C-4 23.66666667 -4 23.66666667 -1 23 C0.0260734 21.68662604 1.02727325 20.35335895 2 19 C4.6875 18.75 4.6875 18.75 7 19 C6.5181507 23.33664366 5.40380005 25.27123929 2 28 C-2.05850209 28.80946741 -5.91957131 28.64192791 -10 28 C-14.29327101 25.08057571 -15.89554211 22.02026315 -17 17 C-17.43345622 10.8232488 -16.40155283 7.10232924 -13 2 C-8.84245167 -0.6138173 -4.77041655 -0.66851858 0 0 Z " fill="#30353D" transform="translate(222,306)"/>
<path d="M0 0 C3.31165975 0.82791494 4.52528784 1.20333061 6.5 3.875 C6.83 2.555 7.16 1.235 7.5 -0.125 C8.82 0.205 10.14 0.535 11.5 0.875 C11.83 2.195 12.16 3.515 12.5 4.875 C13.16 4.875 13.82 4.875 14.5 4.875 C14.83 3.555 15.16 2.235 15.5 0.875 C16.49 0.875 17.48 0.875 18.5 0.875 C17.9740625 1.9578125 17.9740625 1.9578125 17.4375 3.0625 C16.05966427 7.19600718 17.15739827 9.8471948 18.5 13.875 C17.51 13.875 16.52 13.875 15.5 13.875 C15.17 12.555 14.84 11.235 14.5 9.875 C13.84 9.875 13.18 9.875 12.5 9.875 C11.84 11.525 11.18 13.175 10.5 14.875 C9.18 14.875 7.86 14.875 6.5 14.875 C6.5 14.215 6.5 13.555 6.5 12.875 C5.819375 13.225625 5.13875 13.57625 4.4375 13.9375 C0.74937313 15.11456177 -1.75811936 14.73851092 -5.5 13.875 C-6.66343227 11.54813547 -6.69895988 10.02778587 -6.75 7.4375 C-6.78867188 6.26380859 -6.78867188 6.26380859 -6.828125 5.06640625 C-6.5 2.875 -6.5 2.875 -5.203125 1.08203125 C-3.5 -0.125 -3.5 -0.125 0 0 Z " fill="#D4DDE9" transform="translate(233.5,374.125)"/>
<path d="M0 0 C1.98 0 3.96 0 6 0 C6 2.31 6 4.62 6 7 C7.65 7 9.3 7 11 7 C11 8.65 11 10.3 11 12 C9.35 12 7.7 12 6 12 C6.33 17.94 6.66 23.88 7 30 C9.475 30.99 9.475 30.99 12 32 C12 32.99 12 33.98 12 35 C10.56416999 35.10836453 9.1259798 35.18576167 7.6875 35.25 C6.88699219 35.29640625 6.08648437 35.3428125 5.26171875 35.390625 C3 35 3 35 1.21875 33.59375 C-0.67797825 29.55712322 -0.31412088 25.64601705 -0.1875 21.25 C-0.16719727 19.91775391 -0.16719727 19.91775391 -0.14648438 18.55859375 C-0.11121309 16.37177422 -0.06192752 14.18620034 0 12 C-1.32 12 -2.64 12 -4 12 C-4 10.35 -4 8.7 -4 7 C-2.68 7 -1.36 7 0 7 C0 4.69 0 2.38 0 0 Z " fill="#252931" transform="translate(237,299)"/>
<path d="M0 0 C5.28 0 10.56 0 16 0 C16.33 0.99 16.66 1.98 17 3 C11.555 3.495 11.555 3.495 6 4 C6 8.62 6 13.24 6 18 C9.3 18.33 12.6 18.66 16 19 C16 19.99 16 20.98 16 22 C12.37 22 8.74 22 5 22 C5 26.62 5 31.24 5 36 C3.35 36 1.7 36 0 36 C0 24.12 0 12.24 0 0 Z " fill="#1F2229" transform="translate(81,298)"/>
<path d="M0 0 C2 2 2 2 2 5 C7.28 5 12.56 5 18 5 C18.33 4.01 18.66 3.02 19 2 C19.33 3.32 19.66 4.64 20 6 C20.66 6 21.32 6 22 6 C22 6.66 22 7.32 22 8 C15.73 8 9.46 8 3 8 C4.53312767 12.31608796 4.53312767 12.31608796 7 16 C8.51928038 16.07179964 10.04167482 16.08392007 11.5625 16.0625 C12.38878906 16.05347656 13.21507812 16.04445313 14.06640625 16.03515625 C14.70449219 16.02355469 15.34257812 16.01195312 16 16 C16 15.34 16 14.68 16 14 C17.98 14 19.96 14 22 14 C21.43850643 17.25666272 20.62770014 18.95623323 18 21 C14.4363941 22.39998803 10.77670032 22.2650316 7 22 C2.89780229 20.18740101 0.23584641 17.89202893 -2 14 C-2.67604497 8.85871972 -2.62890366 4.55326114 0 0 Z " fill="#21252C" transform="translate(359,313)"/>
<path d="M0 0 C1.0209375 0.02900391 1.0209375 0.02900391 2.0625 0.05859375 C3.0834375 0.06052734 3.0834375 0.06052734 4.125 0.0625 C6.70362488 0.63957129 7.55582887 1.32132686 9.0625 3.49609375 C9.49609375 6.2734375 9.49609375 6.2734375 9.5 9.43359375 C9.51933594 10.47386719 9.53867188 11.51414062 9.55859375 12.5859375 C8.94952286 16.15883365 7.90655795 17.31547789 5.0625 19.49609375 C2.0625 20.05859375 2.0625 20.05859375 -0.9375 19.49609375 C-3.72918197 17.2921343 -4.77718239 15.61111174 -5.28515625 12.078125 C-5.50812169 5.5151857 -5.50812169 5.5151857 -3.66015625 2.21484375 C-1.9375 0.49609375 -1.9375 0.49609375 0 0 Z " fill="#DAE4EF" transform="translate(170.9375,310.50390625)"/>
<path d="M0 0 C2.48250189 0.03761366 3.67229169 0.27261056 5.72265625 1.6953125 C8.34160628 5.39548044 7.56038247 10.18694391 7 14.5 C5.375 17.6875 5.375 17.6875 3 19.5 C-0.0625 20 -0.0625 20 -3 19.5 C-5.55949546 17.64657225 -5.97918798 16.56243607 -7 13.5 C-7.26841061 9.33963556 -7.3152334 6.44570021 -6 2.5 C-3.71485088 0.21485088 -3.11070232 0.13723687 0 0 Z " fill="#D9E4EF" transform="translate(337,310.5)"/>
<path d="M0 0 C1.98 0 3.96 0 6 0 C6 0.66 6 1.32 6 2 C6.99 1.34 7.98 0.68 9 0 C12.1875 -0.125 12.1875 -0.125 15 0 C15 1.65 15 3.3 15 5 C13.2984375 5.2165625 13.2984375 5.2165625 11.5625 5.4375 C8.19222799 5.61171478 8.19222799 5.61171478 7 7 C6.84313751 8.55948542 6.74923361 10.12542668 6.68359375 11.69140625 C6.64169922 12.63564453 6.59980469 13.57988281 6.55664062 14.55273438 C6.51732422 15.54595703 6.47800781 16.53917969 6.4375 17.5625 C6.37272461 19.05813477 6.37272461 19.05813477 6.30664062 20.58398438 C6.20019702 23.0558415 6.09818072 25.5278031 6 28 C4.02 28 2.04 28 0 28 C0 18.76 0 9.52 0 0 Z " fill="#2F323A" transform="translate(307,306)"/>
<path d="M0 0 C3.875 1.75 3.875 1.75 5 4 C6.38645105 20.32151231 6.38645105 20.32151231 2.25 25.9375 C-0.88111268 29.40860724 -3.69346711 30.92741484 -8.375 31.1875 C-11.66589472 31.01728131 -14.76897326 30.63044424 -18 30 C-18 29.01 -18 28.02 -18 27 C-17.33613281 26.97421875 -16.67226563 26.9484375 -15.98828125 26.921875 C-10.50028833 26.56936159 -6.89137355 26.25618982 -3 22 C-1.00478283 18.77964948 -0.75512851 16.32294008 -0.8125 12.5625 C-0.81894531 11.63566406 -0.82539063 10.70882813 -0.83203125 9.75390625 C-0.92365912 6.98260135 -0.92365912 6.98260135 -1.63671875 4.27734375 C-1.75660156 3.52582031 -1.87648438 2.77429688 -2 2 C-1.34 1.34 -0.68 0.68 0 0 Z " fill="#282B33" transform="translate(295,303)"/>
<path d="M0 0 C11.46953938 -0.36998514 11.46953938 -0.36998514 13.859375 1.296875 C15.8037366 4.20009986 15.41409188 6.62810898 15 10 C13.6875 12.4375 13.6875 12.4375 11 14 C7.26598404 14.32773378 3.7630972 14.1791951 0 14 C0 9.38 0 4.76 0 0 Z " fill="#D4DFEA" transform="translate(86,302)"/>
<path d="M0 0 C1.65 0 3.3 0 5 0 C5 12.21 5 24.42 5 37 C3.35 37 1.7 37 0 37 C0 35.68 0 34.36 0 33 C-0.66 32.34 -1.32 31.68 -2 31 C-1.67 30.34 -1.34 29.68 -1 29 C-0.95288991 26.75049325 -0.96266074 24.49969015 -1 22.25 C-1.08025184 14.78566672 -0.64196621 7.43992987 0 0 Z " fill="#1F232A" transform="translate(345,297)"/>
<path d="M0 0 C6.09206361 -0.42014232 9.11941433 -0.06715472 14 4 C16 7 16 7 16 16 C9.73 16 3.46 16 -3 16 C-3 15.67 -3 15.34 -3 15 C-2.07316406 14.93941406 -1.14632812 14.87882812 -0.19140625 14.81640625 C1.00613281 14.73261719 2.20367187 14.64882813 3.4375 14.5625 C5.22994141 14.44068359 5.22994141 14.44068359 7.05859375 14.31640625 C9.88570244 14.32343886 9.88570244 14.32343886 11 13 C4.07 12.505 4.07 12.505 -3 12 C-2 7 -2 7 -0.1875 5.3125 C1.83727622 4.09763427 3.85865096 2.99419777 6 2 C3.03 1.505 3.03 1.505 0 1 C0 0.67 0 0.34 0 0 Z " fill="#353A43" transform="translate(139,306)"/>
<path d="M0 0 C1.65 0 3.3 0 5 0 C5.33 0.66 5.66 1.32 6 2 C6.99 1.34 7.98 0.68 9 0 C12.1875 -0.125 12.1875 -0.125 15 0 C15 1.65 15 3.3 15 5 C13.88625 5.103125 12.7725 5.20625 11.625 5.3125 C10.42875 5.539375 9.2325 5.76625 8 6 C5.94872156 9.07691766 5.72739128 9.93644999 5.5859375 13.44921875 C5.54726562 14.29677734 5.50859375 15.14433594 5.46875 16.01757812 C5.42234375 17.33918945 5.42234375 17.33918945 5.375 18.6875 C5.33632812 19.58017578 5.29765625 20.47285156 5.2578125 21.39257812 C5.16359782 23.5948462 5.07798412 25.79710722 5 28 C3.35 28 1.7 28 0 28 C0 18.76 0 9.52 0 0 Z " fill="#262A32" transform="translate(113,306)"/>
<path d="M0 0 C1.65 0 3.3 0 5 0 C5.33 0.66 5.66 1.32 6 2 C6.99 1.34 7.98 0.68 9 0 C12.1875 -0.125 12.1875 -0.125 15 0 C15 1.65 15 3.3 15 5 C13.88625 5.103125 12.7725 5.20625 11.625 5.3125 C10.42875 5.539375 9.2325 5.76625 8 6 C5.94872156 9.07691766 5.72739128 9.93644999 5.5859375 13.44921875 C5.54726563 14.29677734 5.50859375 15.14433594 5.46875 16.01757812 C5.42234375 17.33918945 5.42234375 17.33918945 5.375 18.6875 C5.33632813 19.58017578 5.29765625 20.47285156 5.2578125 21.39257812 C5.16359782 23.5948462 5.07798412 25.79710722 5 28 C3.35 28 1.7 28 0 28 C0 18.76 0 9.52 0 0 Z " fill="#21242A" transform="translate(388,306)"/>
<path d="M0 0 C0.99 0 1.98 0 3 0 C3 6.27 3 12.54 3 19 C1.39125 19.020625 -0.2175 19.04125 -1.875 19.0625 C-3.23238281 19.07990234 -3.23238281 19.07990234 -4.6171875 19.09765625 C-7 19 -7 19 -9 18 C-9.484375 16.07421875 -9.484375 16.07421875 -9.75 13.6875 C-9.84796875 12.90761719 -9.9459375 12.12773437 -10.046875 11.32421875 C-9.99392264 8.69866432 -9.32990442 7.23526243 -8 5 C-2.25 4.875 -2.25 4.875 0 6 C0 4.02 0 2.04 0 0 Z " fill="#949CA8" transform="translate(193,407)"/>
<path d="M0 0 C0.99 0 1.98 0 3 0 C3 6.27 3 12.54 3 19 C-3.64867782 19.43173233 -3.64867782 19.43173233 -7 19 C-9.45849981 16.46919137 -9.87155955 14.87767642 -10.375 11.4375 C-9.90632651 8.39112232 -9.29917146 7.06925432 -7 5 C-3.8125 4.75 -3.8125 4.75 -1 5 C-0.67 3.35 -0.34 1.7 0 0 Z " fill="#8E96A3" transform="translate(276,407)"/>
<path d="M0 0 C1.32 0 2.64 0 4 0 C4 11.55 4 23.1 4 35 C2.68 35 1.36 35 0 35 C0 34.01 0 33.02 0 32 C-0.66 32 -1.32 32 -2 32 C-2 32.66 -2 33.32 -2 34 C-2.66 34 -3.32 34 -4 34 C-3.67257813 33.17242187 -3.34515625 32.34484375 -3.0078125 31.4921875 C-1.88970041 27.61779908 -1.77456047 24.11167677 -1.875 20.125 C-1.88402344 19.43664062 -1.89304688 18.74828125 -1.90234375 18.0390625 C-1.92567487 16.35922162 -1.96153674 14.67956254 -2 13 C-1.34 13 -0.68 13 0 13 C0 8.71 0 4.42 0 0 Z " fill="#22252C" transform="translate(181,298)"/>
<path d="M0 0 C0.66 0 1.32 0 2 0 C2 6.27 2 12.54 2 19 C1.01 18.67 0.02 18.34 -1 18 C-3.3406065 18.27769908 -5.67624308 18.60539977 -8 19 C-9.8759207 15.85909063 -10.18257272 13.92116258 -9.6875 10.3125 C-9.58824219 9.52488281 -9.48898438 8.73726563 -9.38671875 7.92578125 C-9 6 -9 6 -8 5 C-5.66055264 5.28730055 -3.3260857 5.61936779 -1 6 C-0.67 4.02 -0.34 2.04 0 0 Z " fill="#89919D" transform="translate(146,407)"/>
<path d="M0 0 C0.33 0 0.66 0 1 0 C1.06058594 0.63808594 1.12117188 1.27617187 1.18359375 1.93359375 C1.30927734 3.17302734 1.30927734 3.17302734 1.4375 4.4375 C1.51871094 5.26121094 1.59992188 6.08492188 1.68359375 6.93359375 C1.78930815 8.98662025 1.78930815 8.98662025 3 10 C4.32594105 10.36162029 5.65938457 10.69728039 7 11 C6.67 12.32 6.34 13.64 6 15 C6 14.01 6 13.02 6 12 C4.02 13.32 2.04 14.64 0 16 C-0.66 15.67 -1.32 15.34 -2 15 C-1.34 14.01 -0.68 13.02 0 12 C-1.98 12 -3.96 12 -6 12 C-6 12.66 -6 13.32 -6 14 C-9.01868434 15.50934217 -11.67297229 15.17510672 -15 15 C-15.99 14.34 -16.98 13.68 -18 13 C-18.33 11.02 -18.66 9.04 -19 7 C-12.73 7 -6.46 7 0 7 C0 4.69 0 2.38 0 0 Z " fill="#DAE4EF" transform="translate(155,315)"/>
<path d="M0 0 C1.65 0 3.3 0 5 0 C5 8.91 5 17.82 5 27 C3.35 27 1.7 27 0 27 C0 18.09 0 9.18 0 0 Z " fill="#1E222A" transform="translate(194,307)"/>
<path d="M0 0 C0.66 0 1.32 0 2 0 C2.66 1.98 3.32 3.96 4 6 C4.309375 5.38125 4.61875 4.7625 4.9375 4.125 C5.625 2.75 6.3125 1.375 7 0 C8.32 0 9.64 0 11 0 C11.33 2.31 11.66 4.62 12 7 C12.66 7 13.32 7 14 7 C14.33 4.69 14.66 2.38 15 0 C15.99 0 16.98 0 18 0 C17.68817931 1.41681634 17.37551263 2.83344651 17.0625 4.25 C16.80146484 5.43335938 16.80146484 5.43335938 16.53515625 6.640625 C16.052444 8.76878703 15.53836822 10.88532842 15 13 C13.125 12.8125 13.125 12.8125 11 12 C9.75 9.4375 9.75 9.4375 9 7 C6.89767656 9.8684413 6.89767656 9.8684413 6 13 C4.68 13 3.36 13 2 13 C-0.28571429 4.57142857 -0.28571429 4.57142857 0 0 Z " fill="#9098A4" transform="translate(272,375)"/>
<path d="M0 0 C2.375 1.75 2.375 1.75 4 4 C4 5.32 4 6.64 4 8 C-0.455 8.495 -0.455 8.495 -5 9 C-5 9.99 -5 10.98 -5 12 C-3.8553125 11.505 -3.8553125 11.505 -2.6875 11 C0 10 0 10 3 10 C2 13 2 13 0 14 C-2.9375 14.3125 -2.9375 14.3125 -6 14 C-8.83268842 11.63942631 -8.98743809 10.11933812 -9.375 6.4375 C-9 3 -9 3 -7.875 1.0625 C-5.06487736 -0.52990283 -3.17235276 -0.45319325 0 0 Z " fill="#858E99" transform="translate(208,412)"/>
<path d="M0 0 C3.63 0 7.26 0 11 0 C11 0.66 11 1.32 11 2 C8.36 2 5.72 2 3 2 C3 3.98 3 5.96 3 8 C5.64 8 8.28 8 11 8 C11 8.99 11 9.98 11 11 C8.36 11 5.72 11 3 11 C3 12.65 3 14.3 3 16 C5.97 16 8.94 16 12 16 C12 16.99 12 17.98 12 19 C8.04 19 4.08 19 0 19 C0 12.73 0 6.46 0 0 Z " fill="#939DA7" transform="translate(85,370)"/>
<path d="M0 0 C1.98 0 3.96 0 6 0 C6 2.31 6 4.62 6 7 C7.65 7 9.3 7 11 7 C11 8.65 11 10.3 11 12 C9.35 12 7.7 12 6 12 C6 17.61 6 23.22 6 29 C5.67 29 5.34 29 5 29 C4.67 23.06 4.34 17.12 4 11 C2.68 10.34 1.36 9.68 0 9 C0 9.99 0 10.98 0 12 C-1.32 12 -2.64 12 -4 12 C-4 10.35 -4 8.7 -4 7 C-2.68 7 -1.36 7 0 7 C0 4.69 0 2.38 0 0 Z " fill="#3B414A" transform="translate(237,299)"/>
<path d="M0 0 C1.32 0 2.64 0 4 0 C4.33 3.3 4.66 6.6 5 10 C5.99 10 6.98 10 8 10 C8.33 6.7 8.66 3.4 9 0 C10.32 0 11.64 0 13 0 C13 4.62 13 9.24 13 14 C11.411875 14.061875 9.82375 14.12375 8.1875 14.1875 C7.29417969 14.22230469 6.40085937 14.25710938 5.48046875 14.29296875 C3 14 3 14 1.1875 12.84375 C-0.47611355 10.26077106 -0.29488288 8.35501492 -0.1875 5.3125 C-0.16042969 4.31863281 -0.13335937 3.32476562 -0.10546875 2.30078125 C-0.07066406 1.54152344 -0.03585938 0.78226562 0 0 Z " fill="#9BA3AF" transform="translate(105,412)"/>
<path d="M0 0 C2.79192205 -0.05380578 5.5828141 -0.09357669 8.375 -0.125 C9.1690625 -0.14175781 9.963125 -0.15851563 10.78125 -0.17578125 C12.85492015 -0.19335473 14.92883241 -0.10335168 17 0 C19 2 19 2 19.1953125 4.8203125 C19.17210937 5.91085937 19.14890625 7.00140625 19.125 8.125 C19.10695312 9.22070312 19.08890625 10.31640625 19.0703125 11.4453125 C19.04710937 12.28835938 19.02390625 13.13140625 19 14 C18.01 14 17.02 14 16 14 C15.67 10.37 15.34 6.74 15 3 C13.68 3.33 12.36 3.66 11 4 C10.67 6.97 10.34 9.94 10 13 C9.34 13 8.68 13 8 13 C7.67 9.37 7.34 5.74 7 2 C5.02 2.99 5.02 2.99 3 4 C2.3006486 6.18541552 2.3006486 6.18541552 2.25 8.625 C2.19328125 9.44226563 2.1365625 10.25953125 2.078125 11.1015625 C2.05234375 11.72804688 2.0265625 12.35453125 2 13 C1.34 13 0.68 13 0 13 C0 8.71 0 4.42 0 0 Z " fill="#8A939E" transform="translate(215,412)"/>
<path d="M0 0 C2 3 2 3 3 6 C5.40545638 7.20272819 6.94996953 7.10071472 9.625 7.0625 C10.44226563 7.05347656 11.25953125 7.04445313 12.1015625 7.03515625 C12.72804687 7.02355469 13.35453125 7.01195312 14 7 C14 6.34 14 5.68 14 5 C15.98 5 17.96 5 20 5 C19.08780985 8.75011505 18.28530499 9.82532347 14.9375 11.875 C10.55668031 13.44479372 6.39298487 13.6155361 2 12 C-0.41708456 9.92467535 -2.23854785 7.64563205 -4 5 C-3.01 4.67 -2.02 4.34 -1 4 C-0.26676204 1.98491642 -0.26676204 1.98491642 0 0 Z " fill="#272C35" transform="translate(135,322)"/>
<path d="M0 0 C0 4.29 0 8.58 0 13 C-7.71484375 13.09765625 -7.71484375 13.09765625 -10 13 C-11 12 -11 12 -11.0625 8.9375 C-11.041875 7.968125 -11.02125 6.99875 -11 6 C-8.29120665 4.64560332 -5.99066732 4.93498549 -3 5 C-3 3.68 -3 2.36 -3 1 C-4.65 1 -6.3 1 -8 1 C-8 1.66 -8 2.32 -8 3 C-8.99 3 -9.98 3 -11 3 C-10.67 2.01 -10.34 1.02 -10 0 C-6.7169902 -1.6415049 -3.57454967 -0.51888624 0 0 Z " fill="#8C94A0" transform="translate(102,413)"/>
<path d="M0 0 C5.625 -0.25 5.625 -0.25 9 2 C9.29296875 4.8203125 9.29296875 4.8203125 9.1875 8.125 C9.16042969 9.22070312 9.13335937 10.31640625 9.10546875 11.4453125 C9.07066406 12.28835938 9.03585938 13.13140625 9 14 C7.54176788 14.0270043 6.08339325 14.04639787 4.625 14.0625 C3.81289062 14.07410156 3.00078125 14.08570313 2.1640625 14.09765625 C0 14 0 14 -2 13 C-2 11.02 -2 9.04 -2 7 C-0.865625 6.731875 0.26875 6.46375 1.4375 6.1875 C2.613125 5.795625 3.78875 5.40375 5 5 C5.33 4.01 5.66 3.02 6 2 C4.35 2 2.7 2 1 2 C1 2.66 1 3.32 1 4 C0.01 4 -0.98 4 -2 4 C-1.34 2.68 -0.68 1.36 0 0 Z " fill="#8F99A4" transform="translate(239,412)"/>
<path d="M0 0 C0.99 0.33 1.98 0.66 3 1 C3.87890625 2.77734375 3.87890625 2.77734375 4.5625 4.9375 C5.45906516 7.72850228 5.87774645 8.87774645 8 11 C10.68839385 11.26991906 13.29141936 11.08737357 16 11 C15.67 12.65 15.34 14.3 15 16 C7.76446991 17.34899713 7.76446991 17.34899713 4.125 15.6875 C1.03163988 13.23100814 -0.3682837 11.89558385 -1 8 C-1.07905064 5.66800612 -1.08798769 3.33167378 -1 1 C-0.67 0.67 -0.34 0.34 0 0 Z " fill="#31353F" transform="translate(162,318)"/>
<path d="M0 0 C2.79224073 -0.08071788 5.58216566 -0.14035408 8.375 -0.1875 C9.1690625 -0.21263672 9.963125 -0.23777344 10.78125 -0.26367188 C12.85586148 -0.29004405 14.93100865 -0.15486462 17 0 C19.20914 3.31371 19.22481553 4.3446021 19.125 8.1875 C19.10695312 9.08855469 19.08890625 9.98960937 19.0703125 10.91796875 C19.04710937 11.60503906 19.02390625 12.29210937 19 13 C18.01 13 17.02 13 16 13 C16 9.37 16 5.74 16 2 C14.02 2.33 12.04 2.66 10 3 C10 6.3 10 9.6 10 13 C9.34 13 8.68 13 8 13 C7.67 9.7 7.34 6.4 7 3 C5.68 3.33 4.36 3.66 3 4 C2.67 6.97 2.34 9.94 2 13 C1.34 13 0.68 13 0 13 C0 8.71 0 4.42 0 0 Z " fill="#89929D" transform="translate(130,375)"/>
<path d="M0 0 C6.15234375 -0.09765625 6.15234375 -0.09765625 8 0 C9 1 9 1 9.09765625 3.72265625 C9.08605469 4.82480469 9.07445312 5.92695313 9.0625 7.0625 C9.05347656 8.16722656 9.04445312 9.27195312 9.03515625 10.41015625 C9.02355469 11.26480469 9.01195312 12.11945313 9 13 C7.54364629 13.22174933 6.08477044 13.42698698 4.625 13.625 C3.81289062 13.74101562 3.00078125 13.85703125 2.1640625 13.9765625 C1.44992188 13.98429687 0.73578125 13.99203125 0 14 C-2 12 -2 12 -2.125 9.375 C-2.08375 8.59125 -2.0425 7.8075 -2 7 C3.75 5 3.75 5 6 5 C6 4.01 6 3.02 6 2 C3.69 2.33 1.38 2.66 -1 3 C-0.67 2.01 -0.34 1.02 0 0 Z " fill="#959FA9" transform="translate(154,375)"/>
<path d="M0 0 C3.4375 0.875 3.4375 0.875 5.4375 3.875 C5.4375 5.195 5.4375 6.515 5.4375 7.875 C2.1375 7.875 -1.1625 7.875 -4.5625 7.875 C-4.2325 8.865 -3.9025 9.855 -3.5625 10.875 C-0.27553767 11.67453138 1.14773192 11.97158936 4.4375 10.875 C4.1075 11.865 3.7775 12.855 3.4375 13.875 C0.125 14.5625 0.125 14.5625 -3.5625 14.875 C-5.7786547 13.31811329 -6.4665053 12.39450075 -6.9609375 9.71875 C-6.95320312 8.9453125 -6.94546875 8.171875 -6.9375 7.375 C-6.94523438 6.6015625 -6.95296875 5.828125 -6.9609375 5.03125 C-6.14819495 0.63287856 -4.30026353 -0.15088644 0 0 Z " fill="#ACB4C0" transform="translate(233.5625,374.125)"/>
<path d="M0 0 C0.66 0.33 1.32 0.66 2 1 C2 2.98 2 4.96 2 7 C-0.97 7 -3.94 7 -7 7 C-6.67 7.99 -6.34 8.98 -6 10 C-3.04215769 11.22393475 -1.00272755 10.96516243 2 10 C2 10.66 2 11.32 2 12 C-0.63390925 13.72217143 -1.92411417 14.00455315 -5.125 13.8125 C-8 13 -8 13 -10 10 C-10.53748871 3.98012647 -10.53748871 3.98012647 -8.9375 1.0625 C-5.95126663 -0.57511185 -3.33436766 -0.24249947 0 0 Z " fill="#88929D" transform="translate(317,375)"/>
<path d="M0 0 C0.474375 0.825 0.94875 1.65 1.4375 2.5 C4.34926408 5.34074545 4.88515746 5.34293183 8.75 5.3125 C10.16823316 5.23243845 11.58603027 5.13595863 13 5 C13 4.34 13 3.68 13 3 C14.98 3 16.96 3 19 3 C18.43850643 6.25666272 17.62770014 7.95623323 15 10 C11.4363941 11.39998803 7.77670032 11.2650316 4 11 C0.4613006 9.34860695 -0.81070153 8.28394771 -3 5 C-2.34 5 -1.68 5 -1 5 C-0.67 3.35 -0.34 1.7 0 0 Z " fill="#323640" transform="translate(362,324)"/>
<path d="M0 0 C1.051875 0.01160156 1.051875 0.01160156 2.125 0.0234375 C2.82625 0.01570313 3.5275 0.00796875 4.25 0 C6.125 0.3984375 6.125 0.3984375 8.125 3.3984375 C8.125 4.7184375 8.125 6.0384375 8.125 7.3984375 C4.825 7.3984375 1.525 7.3984375 -1.875 7.3984375 C-0.20954661 9.56485415 -0.20954661 9.56485415 2.125 11.3984375 C4.83205512 11.25818551 4.83205512 11.25818551 7.125 10.3984375 C6.795 11.3884375 6.465 12.3784375 6.125 13.3984375 C3.375 14.1484375 3.375 14.1484375 0.125 14.3984375 C-2.25 12.8984375 -2.25 12.8984375 -3.875 10.3984375 C-4.86084299 1.03292913 -4.86084299 1.03292913 0 0 Z " fill="#878F9B" transform="translate(179.875,374.6015625)"/>
<path d="M0 0 C0.99 0 1.98 0 3 0 C3 3.3 3 6.6 3 10 C3.66 10 4.32 10 5 10 C5.2475 9.360625 5.495 8.72125 5.75 8.0625 C7 6 7 6 9.125 5.25 C9.74375 5.1675 10.3625 5.085 11 5 C10.67 5.5775 10.34 6.155 10 6.75 C8.72924102 9.19883862 8.72924102 9.19883862 9 13 C9.96113866 14.36161311 10.95884159 15.69855198 12 17 C12 17.66 12 18.32 12 19 C11.01 19 10.02 19 9 19 C7.62131719 17.37064759 6.28725907 15.70250393 5 14 C4.34 13.67 3.68 13.34 3 13 C3 14.98 3 16.96 3 19 C2.01 19 1.02 19 0 19 C0 12.73 0 6.46 0 0 Z " fill="#959CA9" transform="translate(322,370)"/>
<path d="M0 0 C1.20462891 -0.02126953 1.20462891 -0.02126953 2.43359375 -0.04296875 C4.5625 0.1875 4.5625 0.1875 6.5625 2.1875 C6.7578125 5.2265625 6.7578125 5.2265625 6.6875 8.8125 C6.66945312 10.00101562 6.65140625 11.18953125 6.6328125 12.4140625 C6.60960937 13.32929688 6.58640625 14.24453125 6.5625 15.1875 C5.9025 15.1875 5.2425 15.1875 4.5625 15.1875 C4.2325 11.5575 3.9025 7.9275 3.5625 4.1875 C2.2425 4.1875 0.9225 4.1875 -0.4375 4.1875 C-0.7675 7.8175 -1.0975 11.4475 -1.4375 15.1875 C-2.7575 15.1875 -4.0775 15.1875 -5.4375 15.1875 C-5.46435412 12.87506208 -5.48382841 10.5625373 -5.5 8.25 C-5.51160156 6.96222656 -5.52320313 5.67445313 -5.53515625 4.34765625 C-5.38877657 -0.38919034 -4.32069139 0.03456553 0 0 Z " fill="#A4AEB8" transform="translate(216.4375,373.8125)"/>
<path d="M0 0 C0.33 0 0.66 0 1 0 C1.125 7.75 1.125 7.75 0 10 C0.66 10.66 1.32 11.32 2 12 C1.34 13.32 0.68 14.64 0 16 C-0.33 15.34 -0.66 14.68 -1 14 C-1.680625 14.515625 -2.36125 15.03125 -3.0625 15.5625 C-6.94111222 17.46054428 -8.87679425 17.17805879 -13 16 C-15.9375 13.4375 -15.9375 13.4375 -18 11 C-16.35 9.35 -14.7 7.7 -13 6 C-12.62875 6.825 -12.2575 7.65 -11.875 8.5 C-10.20668471 11.3109869 -10.20668471 11.3109869 -7 11.5625 C-3.99329833 11.25865783 -3.99329833 11.25865783 -2.1875 9.4375 C-0.66971232 6.32204108 -0.32985004 3.43044042 0 0 Z " fill="#2B3039" transform="translate(344,318)"/>
<path d="M0 0 C0.99 0 1.98 0 3 0 C3.28875 1.134375 3.5775 2.26875 3.875 3.4375 C4.24625 4.613125 4.6175 5.78875 5 7 C5.66 7.33 6.32 7.66 7 8 C7.144375 7.236875 7.28875 6.47375 7.4375 5.6875 C8 3 8 3 9 0 C9.99 0 10.98 0 12 0 C11.31471486 4.14286017 10.02109557 7.84113813 8.5 11.75 C8.0565625 12.89984375 7.613125 14.0496875 7.15625 15.234375 C6 18 6 18 5 19 C3.33382885 19.04063832 1.66611905 19.042721 0 19 C0 18.34 0 17.68 0 17 C0.99 16.67 1.98 16.34 3 16 C2.86722656 15.34773438 2.73445312 14.69546875 2.59765625 14.0234375 C1.65517178 9.3591713 0.74231297 4.70131546 0 0 Z " fill="#8E95A1" transform="translate(162,412)"/>
<path d="M0 0 C1.95766281 -0.08082094 3.91626728 -0.13910778 5.875 -0.1875 C7.51082031 -0.23970703 7.51082031 -0.23970703 9.1796875 -0.29296875 C10.11039062 -0.19628906 11.04109375 -0.09960938 12 0 C12.66 0.99 13.32 1.98 14 3 C16.56282742 3.72965366 16.56282742 3.72965366 19 4 C19 4.33 19 4.66 19 5 C17.02 5 15.04 5 13 5 C13 5.66 13 6.32 13 7 C9.95016004 8.52491998 7.3576631 8.23562548 4 8 C2.125 6.8125 2.125 6.8125 1 5 C0.63759948 3.33941132 0.30115524 1.67278044 0 0 Z " fill="#D7E2EC" transform="translate(362,322)"/>
<path d="M0 0 C18 0 18 0 24 3 C23.34 4.65 22.68 6.3 22 8 C21.45859375 7.68289063 20.9171875 7.36578125 20.359375 7.0390625 C17.5842851 5.81692026 15.26791902 5.59056564 12.25 5.375 C11.26515625 5.30023438 10.2803125 5.22546875 9.265625 5.1484375 C8.51796875 5.09945313 7.7703125 5.05046875 7 5 C7 4.67 7 4.34 7 4 C10.3 3.67 13.6 3.34 17 3 C17 2.34 17 1.68 17 1 C11.72 1 6.44 1 1 1 C1 12.88 1 24.76 1 37 C0.67 37 0.34 37 0 37 C0 24.79 0 12.58 0 0 Z " fill="#474D55" transform="translate(80,297)"/>
<path d="M0 0 C2.31 0 4.62 0 7 0 C7.33 1.65 7.66 3.3 8 5 C9.32 5 10.64 5 12 5 C13.125 9.75 13.125 9.75 12 12 C10.68 11.67 9.36 11.34 8 11 C7.67 16.61 7.34 22.22 7 28 C6.67 28 6.34 28 6 28 C6 19.09 6 10.18 6 1 C4.35 1 2.7 1 1 1 C1 9.91 1 18.82 1 28 C0.67 28 0.34 28 0 28 C0 18.76 0 9.52 0 0 Z " fill="#B4BDC7" transform="translate(193,306)"/>
<path d="M0 0 C8.75 -0.125 8.75 -0.125 11 1 C12.00496852 4.01490557 12.10335303 6.04181692 12.0625 9.1875 C12.05347656 10.08855469 12.04445312 10.98960937 12.03515625 11.91796875 C12.02355469 12.60503906 12.01195312 13.29210937 12 14 C11.01 14 10.02 14 9 14 C8.67 10.37 8.34 6.74 8 3 C6.68 3 5.36 3 4 3 C3.67 6.63 3.34 10.26 3 14 C2.01 14 1.02 14 0 14 C0 9.38 0 4.76 0 0 Z " fill="#919AA6" transform="translate(121,412)"/>
<path d="M0 0 C0.33 0 0.66 0 1 0 C1.09796875 0.89203125 1.1959375 1.7840625 1.296875 2.703125 C1.44640625 3.87359375 1.5959375 5.0440625 1.75 6.25 C1.88921875 7.41015625 2.0284375 8.5703125 2.171875 9.765625 C3.10674972 13.41692814 3.99789781 14.76986695 7 17 C9.10938065 17.68116938 9.10938065 17.68116938 11.25 17.75 C12.4875 17.8325 13.725 17.915 15 18 C15 18.33 15 18.66 15 19 C12.03 19.33 9.06 19.66 6 20 C6.99 20.33 7.98 20.66 9 21 C11 21.66666667 13 22.33333333 15 23 C15 23.33 15 23.66 15 24 C8.98998873 24.07607609 4.27188869 23.98008399 -0.25 19.6875 C-1.953125 17.88671875 -1.953125 17.88671875 -3 16 C-2.671875 13.76953125 -2.671875 13.76953125 -2 12 C-1.34 12 -0.68 12 0 12 C0 8.04 0 4.08 0 0 Z " fill="#333941" transform="translate(272,311)"/>
<path d="M0 0 C1.65 0 3.3 0 5 0 C5.33 0.66 5.66 1.32 6 2 C6.99 1.34 7.98 0.68 9 0 C12.1875 -0.125 12.1875 -0.125 15 0 C15 1.65 15 3.3 15 5 C13.906875 5.103125 12.81375 5.20625 11.6875 5.3125 C8.14440371 5.97307727 7.06756277 6.2027092 5 9 C4.67 6.36 4.34 3.72 4 1 C3.01 1 2.02 1 1 1 C1 9.91 1 18.82 1 28 C0.67 28 0.34 28 0 28 C0 18.76 0 9.52 0 0 Z " fill="#2C2F36" transform="translate(388,306)"/>
<path d="M0 0 C2.63995097 0.07186799 3.79303107 0.14408192 6.0625 1.5625 C7.0625 3.3125 7.0625 3.3125 7.0625 7.3125 C2.4425 7.3125 -2.1775 7.3125 -6.9375 7.3125 C-5.56330645 0.44153226 -5.56330645 0.44153226 0 0 Z " fill="#C8D1DA" transform="translate(142.9375,310.6875)"/>
<path d="M0 0 C2.63995097 0.07186799 3.79303107 0.14408192 6.0625 1.5625 C7.0625 3.3125 7.0625 3.3125 7.0625 7.3125 C2.4425 7.3125 -2.1775 7.3125 -6.9375 7.3125 C-5.56330645 0.44153226 -5.56330645 0.44153226 0 0 Z " fill="#CBD3DC" transform="translate(368.9375,310.6875)"/>
<path d="M0 0 C2.05078125 0.03255208 4.1015625 0.06510417 6.15234375 0.09765625 C6.48234375 1.08765625 6.81234375 2.07765625 7.15234375 3.09765625 C4.84234375 2.76765625 2.53234375 2.43765625 0.15234375 2.09765625 C0.15234375 3.08765625 0.15234375 4.07765625 0.15234375 5.09765625 C1.28671875 5.24203125 2.42109375 5.38640625 3.58984375 5.53515625 C7.15234375 6.09765625 7.15234375 6.09765625 8.15234375 7.09765625 C8.40234375 9.53515625 8.40234375 9.53515625 8.15234375 12.09765625 C4.69572044 14.40207179 3.20376494 14.3562576 -0.84765625 14.09765625 C-1.50765625 13.76765625 -2.16765625 13.43765625 -2.84765625 13.09765625 C-2.84765625 12.10765625 -2.84765625 11.11765625 -2.84765625 10.09765625 C-0.53765625 10.42765625 1.77234375 10.75765625 4.15234375 11.09765625 C4.15234375 10.43765625 4.15234375 9.77765625 4.15234375 9.09765625 C1.84234375 8.10765625 -0.46765625 7.11765625 -2.84765625 6.09765625 C-2.89037725 4.4315372 -2.88829457 2.7638274 -2.84765625 1.09765625 C-1.84765625 0.09765625 -1.84765625 0.09765625 0 0 Z " fill="#939BA7" transform="translate(102.84765625,374.90234375)"/>
<path d="M0 0 C0.99 0 1.98 0 3 0 C3 0.66 3 1.32 3 2 C3.99 2 4.98 2 6 2 C6 2.99 6 3.98 6 5 C5.01 5 4.02 5 3 5 C3 7.97 3 10.94 3 14 C3.99 14.33 4.98 14.66 6 15 C6 15.66 6 16.32 6 17 C0.125 16.125 0.125 16.125 -1 15 C-1.23427778 12.98405418 -1.41336124 10.961526 -1.5625 8.9375 C-1.64628906 7.83277344 -1.73007813 6.72804688 -1.81640625 5.58984375 C-1.90728516 4.30787109 -1.90728516 4.30787109 -2 3 C-1.34 3 -0.68 3 0 3 C0 2.01 0 1.02 0 0 Z " fill="#8C95A0" transform="translate(115,372)"/>
<path d="M0 0 C2.33333333 0 4.66666667 0 7 0 C7 4.29 7 8.58 7 13 C7.66 13 8.32 13 9 13 C9 10.03 9 7.06 9 4 C9.33 4 9.66 4 10 4 C10 7.3 10 10.6 10 14 C8.68 14 7.36 14 6 14 C5.87625 13.0925 5.7525 12.185 5.625 11.25 C4.73167823 6.60472681 2.89872217 3.68928276 0 0 Z M-6 8 C-2.7 8 0.6 8 4 8 C2.71567636 10.56864728 1.63365249 10.946539 -1 12 C-2.32 12 -3.64 12 -5 12 C-5.33 10.68 -5.66 9.36 -6 8 Z " fill="#D1DBE5" transform="translate(208,412)"/>
<path d="M0 0 C1.32 0 2.64 0 4 0 C4 6.27 4 12.54 4 19 C2.68 19 1.36 19 0 19 C0 12.73 0 6.46 0 0 Z " fill="#A4AEBA" transform="translate(84,407)"/>
<path d="M0 0 C0.99 0 1.98 0 3 0 C3.33 1.32 3.66 2.64 4 4 C4.66 4 5.32 4 6 4 C6.33 2.68 6.66 1.36 7 0 C7.99 0 8.98 0 10 0 C9.649375 0.721875 9.29875 1.44375 8.9375 2.1875 C7.55966427 6.32100718 8.65739827 8.9721948 10 13 C9.01 13 8.02 13 7 13 C6.67 11.68 6.34 10.36 6 9 C5.34 9 4.68 9 4 9 C3.34 10.65 2.68 12.3 2 14 C1.01 14 0.02 14 -1 14 C-0.649375 13.360625 -0.29875 12.72125 0.0625 12.0625 C1.34990613 7.8569733 0.6908847 4.28535237 0 0 Z " fill="#9097A4" transform="translate(242,375)"/>
<path d="M0 0 C2.01822917 0.06510417 4.03645833 0.13020833 6.0546875 0.1953125 C6.0546875 1.1853125 6.0546875 2.1753125 6.0546875 3.1953125 C3.7446875 2.8653125 1.4346875 2.5353125 -0.9453125 2.1953125 C-0.9453125 3.1853125 -0.9453125 4.1753125 -0.9453125 5.1953125 C0.1890625 5.3396875 1.3234375 5.4840625 2.4921875 5.6328125 C6.0546875 6.1953125 6.0546875 6.1953125 7.0546875 7.1953125 C7.3046875 9.6328125 7.3046875 9.6328125 7.0546875 12.1953125 C3.80835226 14.359536 2.81167307 14.57101106 -0.9453125 14.1953125 C-1.9353125 13.5353125 -2.9253125 12.8753125 -3.9453125 12.1953125 C-3.9453125 11.5353125 -3.9453125 10.8753125 -3.9453125 10.1953125 C-1.3053125 10.8553125 1.3346875 11.5153125 4.0546875 12.1953125 C4.0546875 10.8753125 4.0546875 9.5553125 4.0546875 8.1953125 C1.7446875 7.5353125 -0.5653125 6.8753125 -2.9453125 6.1953125 C-3.5703125 4.3203125 -3.5703125 4.3203125 -3.9453125 2.1953125 C-1.9453125 0.1953125 -1.9453125 0.1953125 0 0 Z " fill="#9097A4" transform="translate(345.9453125,374.8046875)"/>
<path d="M0 0 C0.33 0.99 0.66 1.98 1 3 C-1.31 2.67 -3.62 2.34 -6 2 C-6 2.99 -6 3.98 -6 5 C-3.36 5.66 -0.72 6.32 2 7 C1.25 11.75 1.25 11.75 -1 14 C-4.125 14.125 -4.125 14.125 -7 14 C-7 13.34 -7 12.68 -7 12 C-7.66 12 -8.32 12 -9 12 C-9 11.34 -9 10.68 -9 10 C-6.36 10.66 -3.72 11.32 -1 12 C-1.33 11.01 -1.66 10.02 -2 9 C-5.50294871 7.28432339 -5.50294871 7.28432339 -9 6 C-8.625 3.5625 -8.625 3.5625 -8 1 C-5.29120665 -0.35439668 -2.99066732 -0.06501451 0 0 Z " fill="#8F97A3" transform="translate(200,375)"/>
<path d="M0 0 C1.65 0 3.3 0 5 0 C4.67 1.32 4.34 2.64 4 4 C1.69 4.33 -0.62 4.66 -3 5 C-3 6.98 -3 8.96 -3 11 C-0.03 11.495 -0.03 11.495 3 12 C0.70221327 13.3950848 -0.4792967 14.07438619 -3.1875 13.6875 C-5 13 -5 13 -6 12 C-6.0979057 10.50261876 -6.12974864 9.00057108 -6.125 7.5 C-6.12757813 6.6853125 -6.13015625 5.870625 -6.1328125 5.03125 C-6 3 -6 3 -5 2 C-3.33382885 1.95936168 -1.66611905 1.957279 0 2 C0 1.34 0 0.68 0 0 Z " fill="#DBE5F0" transform="translate(240,414)"/>
<path d="M0 0 C0.99 0 1.98 0 3 0 C3 1.32 3 2.64 3 4 C3.99 4 4.98 4 6 4 C6 4.66 6 5.32 6 6 C5.01 6 4.02 6 3 6 C3 8.97 3 11.94 3 15 C3.99 15 4.98 15 6 15 C6 15.99 6 16.98 6 18 C1.125 17.125 1.125 17.125 0 16 C-0.262682 13.88103187 -0.46051983 11.75384336 -0.625 9.625 C-0.72039062 8.46226562 -0.81578125 7.29953125 -0.9140625 6.1015625 C-1 3 -1 3 0 0 Z " fill="#999FAB" transform="translate(256,371)"/>
<path d="M0 0 C3.3 0 6.6 0 10 0 C11.32229189 2.64458379 11.09677194 4.67761301 11.0625 7.625 C11.05347656 8.62789063 11.04445313 9.63078125 11.03515625 10.6640625 C11.02355469 11.43492187 11.01195312 12.20578125 11 13 C10.34 13 9.68 13 9 13 C8.67 9.37 8.34 5.74 8 2 C6.35 2.66 4.7 3.32 3 4 C2.67 6.97 2.34 9.94 2 13 C1.34 13 0.68 13 0 13 C0 8.71 0 4.42 0 0 Z " fill="#8B959F" transform="translate(252,412)"/>
<path d="M0 0 C2.32758311 0.93103324 3.74357132 1.65382128 5.25 3.6875 C6 6 6 6 6 13 C-0.6 13 -7.2 13 -14 13 C-14 12.67 -14 12.34 -14 12 C-7.73 12 -1.46 12 5 12 C5 11.34 5 10.68 5 10 C4.34 10 3.68 10 3 10 C2.67 9.01 2.34 8.02 2 7 C1.34 7.66 0.68 8.32 0 9 C-0.87890625 2.84765625 -0.87890625 2.84765625 -1 1 C-0.67 0.67 -0.34 0.34 0 0 Z " fill="#424952" transform="translate(376,309)"/>
<path d="M0 0 C4.875 0.875 4.875 0.875 6 2 C6.30232139 4.87205324 6.37392386 6.43911421 4.75 8.875 C3 10 3 10 0.8125 9.6875 C0.214375 9.460625 -0.38375 9.23375 -1 9 C-1.33 6.69 -1.66 4.38 -2 2 C-1.34 2 -0.68 2 0 2 C0 1.34 0 0.68 0 0 Z " fill="#D5DEE9" transform="translate(140,414)"/>
<path d="M0 0 C1.16273438 -0.01417969 2.32546875 -0.02835937 3.5234375 -0.04296875 C6.625 0.1875 6.625 0.1875 9.625 2.1875 C9.17125 2.620625 8.7175 3.05375 8.25 3.5 C6.42475666 5.29548342 6.42475666 5.29548342 4.625 8.1875 C4.50125 7.548125 4.3775 6.90875 4.25 6.25 C4.04375 5.569375 3.8375 4.88875 3.625 4.1875 C2.965 3.8575 2.305 3.5275 1.625 3.1875 C1.295 3.8475 0.965 4.5075 0.625 5.1875 C-0.365 5.8475 -1.355 6.5075 -2.375 7.1875 C-4.025 5.2075 -5.675 3.2275 -7.375 1.1875 C-5.51059425 -0.67690575 -2.4925383 0.01375573 0 0 Z " fill="#DAE3EE" transform="translate(156.375,305.8125)"/>
<path d="M0 0 C2.375 -0.1875 2.375 -0.1875 5 0 C7 3 7 3 7 7 C4.03 7 1.06 7 -2 7 C-1.34 8.32 -0.68 9.64 0 11 C3.465 10.505 3.465 10.505 7 10 C6.67 10.99 6.34 11.98 6 13 C2.75 13.8125 2.75 13.8125 -1 14 C-3.4375 11.75 -3.4375 11.75 -5 9 C-5 8.01 -5 7.02 -5 6 C-1.7 6 1.6 6 5 6 C5 5.01 5 4.02 5 3 C4.34 3 3.68 3 3 3 C3 2.34 3 1.68 3 1 C2.01 0.67 1.02 0.34 0 0 Z " fill="#88919C" transform="translate(297,375)"/>
<path d="M0 0 C0.66 0 1.32 0 2 0 C2 0.99 2 1.98 2 3 C2.99 3 3.98 3 5 3 C5 3.66 5 4.32 5 5 C4.34 5 3.68 5 3 5 C3 7.97 3 10.94 3 14 C3.99 14.33 4.98 14.66 6 15 C6 15.66 6 16.32 6 17 C4.02 16.67 2.04 16.34 0 16 C0 12.37 0 8.74 0 5 C-0.66 5 -1.32 5 -2 5 C-2 4.34 -2 3.68 -2 3 C-1.34 3 -0.68 3 0 3 C0 2.01 0 1.02 0 0 Z " fill="#868F9A" transform="translate(168,372)"/>
<path d="M0 0 C0.99 0.33 1.98 0.66 3 1 C2.83628906 1.50015625 2.67257813 2.0003125 2.50390625 2.515625 C1.8121089 5.9263468 1.89495335 9.28735757 1.9375 12.75 C1.94201172 13.44738281 1.94652344 14.14476562 1.95117188 14.86328125 C1.9628998 16.57555803 1.98083347 18.28779033 2 20 C1.01 20 0.02 20 -1 20 C-1.22162857 17.22964291 -1.42779249 14.45961005 -1.625 11.6875 C-1.68945312 10.90181641 -1.75390625 10.11613281 -1.8203125 9.30664062 C-1.871875 8.54931641 -1.9234375 7.79199219 -1.9765625 7.01171875 C-2.02893066 6.31522217 -2.08129883 5.61872559 -2.13525391 4.90112305 C-2 3 -2 3 0 0 Z " fill="#A2ACB7" transform="translate(124,369)"/>
<path d="M0 0 C4.875 0.875 4.875 0.875 6 2 C6.04080783 3.99958364 6.04254356 6.00045254 6 8 C4.02 8.99 4.02 8.99 2 10 C0.4375 8.9375 0.4375 8.9375 -1 7 C-0.6875 3.3125 -0.6875 3.3125 0 0 Z " fill="#DBE3F0" transform="translate(187,414)"/>
<path d="M0 0 C3.53571429 0.53571429 3.53571429 0.53571429 5 2 C5.1875 4.9375 5.1875 4.9375 5 8 C4.34 8.66 3.68 9.32 3 10 C0.875 9.625 0.875 9.625 -1 9 C-1.625 5.625 -1.625 5.625 -2 2 C-1.34 1.34 -0.68 0.68 0 0 Z " fill="#DAE2EE" transform="translate(271,414)"/>
<path d="M0 0 C1.48831242 0.00667405 2.97660807 0.01863442 4.46484375 0.03515625 C5.22345703 0.03966797 5.98207031 0.04417969 6.76367188 0.04882812 C8.64326246 0.06064945 10.52281274 0.07858547 12.40234375 0.09765625 C12.73234375 0.75765625 13.06234375 1.41765625 13.40234375 2.09765625 C6.96734375 2.59265625 6.96734375 2.59265625 0.40234375 3.09765625 C-0.25765625 4.74765625 -0.91765625 6.39765625 -1.59765625 8.09765625 C-2.58765625 7.76765625 -3.57765625 7.43765625 -4.59765625 7.09765625 C-4.64019981 5.09810879 -4.63846408 3.09723989 -4.59765625 1.09765625 C-3.59765625 0.09765625 -3.59765625 0.09765625 0 0 Z M13.40234375 0.09765625 C15.40234375 1.09765625 15.40234375 1.09765625 15.40234375 1.09765625 Z " fill="#1E2129" transform="translate(135.59765625,318.90234375)"/>
<path d="M0 0 C0.33 0 0.66 0 1 0 C1.05398987 2.27057377 1.09278742 4.54151288 1.125 6.8125 C1.14820313 8.07707031 1.17140625 9.34164063 1.1953125 10.64453125 C1 14 1 14 -1 17 C-1.66 16.34 -2.32 15.68 -3 15 C-4.98821313 14.60235737 -6.98944339 14.26224651 -9 14 C-9 13.01 -9 12.02 -9 11 C-9.99 10.34 -10.98 9.68 -12 9 C-10.741875 8.95875 -9.48375 8.9175 -8.1875 8.875 C-7.47980469 8.85179687 -6.77210938 8.82859375 -6.04296875 8.8046875 C-4 9 -4 9 -1 11 C-0.67 7.37 -0.34 3.74 0 0 Z " fill="#3B4049" transform="translate(344,297)"/>
<path d="M0 0 C2 2 2 2 2.1953125 4.8203125 C2.16050781 6.45613281 2.16050781 6.45613281 2.125 8.125 C2.10695312 9.22070312 2.08890625 10.31640625 2.0703125 11.4453125 C2.04710937 12.28835938 2.02390625 13.13140625 2 14 C1.01 14 0.02 14 -1 14 C-1.33 10.37 -1.66 6.74 -2 3 C-3.65 3.33 -5.3 3.66 -7 4 C-7.33 3.01 -7.66 2.02 -8 1 C-5.23749964 -0.38125018 -3.05268901 -0.19079306 0 0 Z " fill="#969FAB" transform="translate(232,412)"/>
<path d="M0 0 C3.66666667 0 7.33333333 0 11 0 C11 3.3 11 6.6 11 10 C10.01 9.67 9.02 9.34 8 9 C7.3125 6.9375 7.3125 6.9375 7 5 C4.69 4.34 2.38 3.68 0 3 C0 2.01 0 1.02 0 0 Z " fill="#DEE7F3" transform="translate(103,377)"/>
<path d="M0 0 C1.98 0 3.96 0 6 0 C4.75023244 3.65316671 4.32901247 4.78065836 1 7 C-2.5625 7.25 -2.5625 7.25 -6 7 C-6.66 6.34 -7.32 5.68 -8 5 C-2.25 2 -2.25 2 0 2 C0 1.34 0 0.68 0 0 Z " fill="#2E343C" transform="translate(149,327)"/>
<path d="M0 0 C1.9453125 -0.29296875 1.9453125 -0.29296875 4.125 -0.1875 C5.40375 -0.125625 6.6825 -0.06375 8 0 C9 3 9 3 8 6 C5.36 6 2.72 6 0 6 C0 5.34 0 4.68 0 4 C-0.66 3.67 -1.32 3.34 -2 3 C-1.34 2.01 -0.68 1.02 0 0 Z " fill="#AEB4C1" transform="translate(178,375)"/>
<path d="M0 0 C0.66 1.32 1.32 2.64 2 4 C5.3 4 8.6 4 12 4 C12.33 3.01 12.66 2.02 13 1 C13 2.32 13 3.64 13 5 C8.545 5.495 8.545 5.495 4 6 C4 6.99 4 7.98 4 9 C5.1446875 8.505 5.1446875 8.505 6.3125 8 C9 7 9 7 12 7 C11 10 11 10 9 11 C6.0625 11.3125 6.0625 11.3125 3 11 C1.125 9.4375 1.125 9.4375 0 7 C-0.1875 3.25 -0.1875 3.25 0 0 Z " fill="#A1ABB5" transform="translate(199,415)"/>
<path d="M0 0 C2.31 0 4.62 0 7 0 C7 0.66 7 1.32 7 2 C6.01 2.66 5.02 3.32 4 4 C3.41810734 6.42521494 3.41810734 6.42521494 3.3125 9.125 C3.24675781 10.03507812 3.18101562 10.94515625 3.11328125 11.8828125 C3.07589844 12.58148438 3.03851563 13.28015625 3 14 C2.01 14 1.02 14 0 14 C0 9.38 0 4.76 0 0 Z " fill="#959FAA" transform="translate(152,412)"/>
<path d="M0 0 C2.89932357 2.39509338 3.50168276 4.31245243 4 8 C2.68 8.33 1.36 8.66 0 9 C0 8.34 0 7.68 0 7 C-0.5775 7.350625 -1.155 7.70125 -1.75 8.0625 C-4.35801776 9.14917407 -5.39417629 8.93065133 -8 8 C-8.33 6.68 -8.66 5.36 -9 4 C-6.03 4 -3.06 4 0 4 C0 2.68 0 1.36 0 0 Z " fill="#CBD3DE" transform="translate(304,378)"/>
<path d="M0 0 C5.28497409 -0.44041451 5.28497409 -0.44041451 8 0 C10.5 2.5 10.5 2.5 12 5 C11.34 5.66 10.68 6.32 10 7 C9.67 6.67 9.34 6.34 9 6 C7.32115762 5.6068352 5.63149955 5.25914548 3.9375 4.9375 C3.01839844 4.76089844 2.09929687 4.58429688 1.15234375 4.40234375 C0.44207031 4.26957031 -0.26820313 4.13679688 -1 4 C-0.67 2.68 -0.34 1.36 0 0 Z " fill="#2C303A" transform="translate(168,306)"/>
<path d="M0 0 C0.66 0 1.32 0 2 0 C2 1.32 2 2.64 2 4 C-1.3 4 -4.6 4 -8 4 C-7.67 4.99 -7.34 5.98 -7 7 C-3.71303767 7.79953138 -2.28976808 8.09658936 1 7 C0.67 7.99 0.34 8.98 0 10 C-6.37426409 11.32296047 -6.37426409 11.32296047 -8.9375 10 C-10.52633023 7.00926074 -10.18792343 4.31998061 -10 1 C-9.67 1.66 -9.34 2.32 -9 3 C-6.03 3 -3.06 3 0 3 C0 2.01 0 1.02 0 0 Z " fill="#8D96A2" transform="translate(237,378)"/>
<path d="M0 0 C0.598125 0.20625 1.19625 0.4125 1.8125 0.625 C1.8125 1.615 1.8125 2.605 1.8125 3.625 C2.4725 3.625 3.1325 3.625 3.8125 3.625 C3.8125 4.615 3.8125 5.605 3.8125 6.625 C0.5125 6.625 -2.7875 6.625 -6.1875 6.625 C-5.875 4.25 -5.875 4.25 -5.1875 1.625 C-2.1875 -0.375 -2.1875 -0.375 0 0 Z " fill="#9DA6B1" transform="translate(298.1875,374.375)"/>
<path d="M0 0 C4.29 0 8.58 0 13 0 C13.33 1.32 13.66 2.64 14 4 C11.23547967 5.38226016 8.9538637 5.09525387 5.875 5.0625 C2.966875 5.0315625 2.966875 5.0315625 0 5 C0 9.29 0 13.58 0 18 C-0.33 18 -0.66 18 -1 18 C-1 13.38 -1 8.76 -1 4 C2.63 4 6.26 4 10 4 C10 3.01 10 2.02 10 1 C6.7 1 3.4 1 0 1 C0 0.67 0 0.34 0 0 Z " fill="#484D56" transform="translate(87,316)"/>
<path d="M0 0 C1.98 0 3.96 0 6 0 C5.43850643 3.25666272 4.62770014 4.95623323 2 7 C-1.55343865 8.39599376 -5.23185336 8.07246436 -9 8 C-9 7.67 -9 7.34 -9 7 C-7.02 7 -5.04 7 -3 7 C-2.67 5.35 -2.34 3.7 -2 2 C-1.34 2 -0.68 2 0 2 C0 1.34 0 0.68 0 0 Z " fill="#3B4149" transform="translate(375,327)"/>
<path d="M0 0 C0.33 0 0.66 0 1 0 C1.06058594 0.63808594 1.12117187 1.27617187 1.18359375 1.93359375 C1.26738281 2.75988281 1.35117188 3.58617187 1.4375 4.4375 C1.51871094 5.26121094 1.59992188 6.08492188 1.68359375 6.93359375 C1.78930815 8.98662025 1.78930815 8.98662025 3 10 C4.32594105 10.36162029 5.65938457 10.69728039 7 11 C6.67 12.32 6.34 13.64 6 15 C6 14.01 6 13.02 6 12 C4.02 13.32 2.04 14.64 0 16 C-0.66 15.67 -1.32 15.34 -2 15 C-1.34 14.01 -0.68 13.02 0 12 C-1.98 12 -3.96 12 -6 12 C-6 12.66 -6 13.32 -6 14 C-6.66 14 -7.32 14 -8 14 C-8.33 13.01 -8.66 12.02 -9 11 C-6.69 11 -4.38 11 -2 11 C-2 10.34 -2 9.68 -2 9 C-1.34 9 -0.68 9 0 9 C0 6.03 0 3.06 0 0 Z " fill="#C5CFDA" transform="translate(155,315)"/>
<path d="M0 0 C0 1.98 0 3.96 0 6 C-2.97 6 -5.94 6 -9 6 C-8.67 4.02 -8.34 2.04 -8 0 C-4.71023192 -1.09658936 -3.28696233 -0.79953138 0 0 Z " fill="#959EAA" transform="translate(248,420)"/>
<path d="M0 0 C6.15234375 -0.09765625 6.15234375 -0.09765625 8 0 C9 1 9 1 9.09765625 3.72265625 C9.08605469 4.82480469 9.07445312 5.92695313 9.0625 7.0625 C9.05347656 8.16722656 9.04445312 9.27195312 9.03515625 10.41015625 C9.02355469 11.26480469 9.01195312 12.11945313 9 13 C8.34 13 7.68 13 7 13 C6.67 9.37 6.34 5.74 6 2 C3.69 2.33 1.38 2.66 -1 3 C-0.67 2.01 -0.34 1.02 0 0 Z " fill="#9098A4" transform="translate(154,375)"/>
<path d="M0 0 C0 4.29 0 8.58 0 13 C-3.3 13 -6.6 13 -10 13 C-10 12.67 -10 12.34 -10 12 C-7.03 12 -4.06 12 -1 12 C-1.144375 10.741875 -1.28875 9.48375 -1.4375 8.1875 C-1.51871094 7.47980469 -1.59992188 6.77210938 -1.68359375 6.04296875 C-1.97170735 3.80603607 -1.97170735 3.80603607 -3 1 C-4.65 1 -6.3 1 -8 1 C-8 1.66 -8 2.32 -8 3 C-8.99 3 -9.98 3 -11 3 C-10.67 2.01 -10.34 1.02 -10 0 C-6.7169902 -1.6415049 -3.57454967 -0.51888624 0 0 Z " fill="#99A2AE" transform="translate(102,413)"/>
<path d="M0 0 C0.66 0 1.32 0 2 0 C2 1.65 2 3.3 2 5 C2.99 5 3.98 5 5 5 C5 4.34 5 3.68 5 3 C6.65 3 8.3 3 10 3 C10 4.32 10 5.64 10 7 C6.37 7 2.74 7 -1 7 C-1.04254356 5.00045254 -1.04080783 2.99958364 -1 1 C-0.67 0.67 -0.34 0.34 0 0 Z " fill="#DFE9F5" transform="translate(89,411)"/>
<path d="M0 0 C0.33 0 0.66 0 1 0 C1 2.31 1 4.62 1 7 C0.01 7.495 0.01 7.495 -1 8 C-1 7.34 -1 6.68 -1 6 C-2.11375 6.5878125 -2.11375 6.5878125 -3.25 7.1875 C-6 8 -6 8 -8.3125 6.75 C-10 5 -10 5 -10 3 C-6.7 3 -3.4 3 0 3 C0 2.01 0 1.02 0 0 Z " fill="#C7D0DC" transform="translate(188,379)"/>
<path d="M0 0 C1.89213369 2.38573379 3.02391783 4.07175348 4 7 C4.99 7.66 5.98 8.32 7 9 C5.0085944 9.38133299 3.00720923 9.71325582 1 10 C0.67 9.67 0.34 9.34 0 9 C-0.66 9.66 -1.32 10.32 -2 11 C-2 10.34 -2 9.68 -2 9 C-2.99 8.67 -3.98 8.34 -5 8 C-4.01 8 -3.02 8 -2 8 C-1.7834375 6.576875 -1.7834375 6.576875 -1.5625 5.125 C-1 2 -1 2 0 0 Z " fill="#CED6E3" transform="translate(280,380)"/>
<path d="M0 0 C1.36125 0.12375 1.36125 0.12375 2.75 0.25 C2.75 1.9 2.75 3.55 2.75 5.25 C1.079375 5.4665625 1.079375 5.4665625 -0.625 5.6875 C-4.07142047 6.03372035 -4.07142047 6.03372035 -6.25 7.25 C-6.58 6.26 -6.91 5.27 -7.25 4.25 C-4.83923194 1.28290085 -3.90322061 0.30024774 0 0 Z " fill="#262C35" transform="translate(319.25,305.75)"/>
<path d="M0 0 C0.99 0.33 1.98 0.66 3 1 C3.1875 3.375 3.1875 3.375 3 6 C-0.45662331 8.30441554 -1.94857881 8.25860135 -6 8 C-6.66 7.67 -7.32 7.34 -8 7 C-8 6.01 -8 5.02 -8 4 C-5.69 4.33 -3.38 4.66 -1 5 C-0.67 3.35 -0.34 1.7 0 0 Z " fill="#959DAA" transform="translate(108,381)"/>
<path d="M0 0 C1.98 0 3.96 0 6 0 C6 2.31 6 4.62 6 7 C5.67 7 5.34 7 5 7 C5 5.02 5 3.04 5 1 C3.68 1 2.36 1 1 1 C1.33 3.64 1.66 6.28 2 9 C1.34 9 0.68 9 0 9 C0 9.99 0 10.98 0 12 C-1.32 12 -2.64 12 -4 12 C-4 10.35 -4 8.7 -4 7 C-2.68 7 -1.36 7 0 7 C0 4.69 0 2.38 0 0 Z " fill="#474D56" transform="translate(237,299)"/>
<path d="M0 0 C1.28983433 2.57966865 2.08864192 5.26592575 3 8 C5.95784231 9.22393475 7.99727245 8.96516243 11 8 C11 8.66 11 9.32 11 10 C8.36609075 11.72217143 7.07588583 12.00455315 3.875 11.8125 C1 11 1 11 -1 8 C-1.1875 4.375 -1.1875 4.375 -1 1 C-0.67 0.67 -0.34 0.34 0 0 Z " fill="#97A0AB" transform="translate(308,377)"/>
<path d="M0 0 C1.99954746 -0.04254356 4.00041636 -0.04080783 6 0 C7 1 7 1 7.09765625 3.94140625 C7.08605469 5.13636719 7.07445312 6.33132813 7.0625 7.5625 C7.05347656 8.76003906 7.04445312 9.95757812 7.03515625 11.19140625 C7.02355469 12.11824219 7.01195312 13.04507812 7 14 C6.34 14 5.68 14 5 14 C4.67 10.37 4.34 6.74 4 3 C2.35 2.67 0.7 2.34 -1 2 C-0.67 1.34 -0.34 0.68 0 0 Z " fill="#8A929E" transform="translate(216,375)"/>
<path d="M0 0 C0.66 0.33 1.32 0.66 2 1 C2 1.66 2 2.32 2 3 C5.3 3.33 8.6 3.66 12 4 C12 4.66 12 5.32 12 6 C10.87851562 5.96519531 10.87851562 5.96519531 9.734375 5.9296875 C8.74953125 5.91164063 7.7646875 5.89359375 6.75 5.875 C5.77546875 5.85179687 4.8009375 5.82859375 3.796875 5.8046875 C0.94930049 6.00354047 -0.63037132 6.44561054 -3 8 C-3.33 8.66 -3.66 9.32 -4 10 C-3.42415568 7.61435923 -2.77772405 5.33317216 -2 3 C-2.66 2.67 -3.32 2.34 -4 2 C-2.125 0.9375 -2.125 0.9375 0 0 Z " fill="#363B42" transform="translate(278,297)"/>
<path d="M0 0 C0.33 0 0.66 0 1 0 C1 2.64 1 5.28 1 8 C0.01 8 -0.98 8 -2 8 C-4.21117926 8.46903802 -5.97321842 8.98660921 -8 10 C-9.13350534 12.01669827 -9.13350534 12.01669827 -10 14 C-10.24213848 11.09433826 -10.16185671 9.33270547 -8.875 6.6875 C-7 5 -7 5 -3.8125 4.75 C-2.884375 4.8325 -1.95625 4.915 -1 5 C-0.67 3.35 -0.34 1.7 0 0 Z " fill="#97A0AB" transform="translate(276,407)"/>
<path d="M0 0 C2.64 0.99 5.28 1.98 8 3 C8 4.32 8 5.64 8 7 C2.46153846 6.38461538 2.46153846 6.38461538 0.125 4.4375 C-0.24625 3.963125 -0.6175 3.48875 -1 3 C-0.67 2.01 -0.34 1.02 0 0 Z " fill="#CBD4E0" transform="translate(342,380)"/>
<path d="M0 0 C0.99 0 1.98 0 3 0 C3.28875 1.11375 3.5775 2.2275 3.875 3.375 C4.69241329 7.00291092 4.69241329 7.00291092 7 9 C6.67 9.66 6.34 10.32 6 11 C5.34 11 4.68 11 4 11 C3.67 11.66 3.34 12.32 3 13 C2.49242138 11.58603098 1.99425075 10.16868271 1.5 8.75 C1.08234375 7.56664062 1.08234375 7.56664062 0.65625 6.359375 C0 4 0 4 0 0 Z " fill="#969EAA" transform="translate(162,412)"/>
<path d="M0 0 C1.32 0.33 2.64 0.66 4 1 C4 1.99 4 2.98 4 4 C1.11788698 4.96070434 -0.69850044 5.10581883 -3.6875 5.0625 C-4.89986328 5.04896484 -4.89986328 5.04896484 -6.13671875 5.03515625 C-7.05904297 5.01775391 -7.05904297 5.01775391 -8 5 C-7.67 4.34 -7.34 3.68 -7 3 C-4.6859378 2.26924352 -2.35171131 1.59861742 0 1 C0 0.67 0 0.34 0 0 Z " fill="#DFEBF4" transform="translate(145,312)"/>
<path d="M0 0 C0.66 0.66 1.32 1.32 2 2 C1.01 3.32 0.02 4.64 -1 6 C-1.66 5.34 -2.32 4.68 -3 4 C-4.0209375 3.7834375 -4.0209375 3.7834375 -5.0625 3.5625 C-5.701875 3.376875 -6.34125 3.19125 -7 3 C-7.33 2.01 -7.66 1.02 -8 0 C-5.09288879 -1.4535556 -3.10402897 -0.71133997 0 0 Z " fill="#292C34" transform="translate(375,307)"/>
<path d="M0 0 C1.98 0 3.96 0 6 0 C6 1.98 6 3.96 6 6 C4.33388095 6.042721 2.66617115 6.04063832 1 6 C0 5 0 5 -0.0625 2.4375 C-0.041875 1.633125 -0.02125 0.82875 0 0 Z " fill="#2D353E" transform="translate(193,296)"/>
<path d="M0 0 C0.66 0 1.32 0 2 0 C2.05383848 2.45862401 2.09359038 4.9160755 2.125 7.375 C2.14175781 8.07367188 2.15851563 8.77234375 2.17578125 9.4921875 C2.19344267 11.32897486 2.10303261 13.16601963 2 15 C1.34 15.66 0.68 16.32 0 17 C-0.89316269 11.06390334 -0.97040422 5.93024803 0 0 Z " fill="#88919D" transform="translate(277,407)"/>
<path d="M0 0 C0.33 0 0.66 0 1 0 C1 2.97 1 5.94 1 9 C1.66 9 2.32 9 3 9 C3 6.03 3 3.06 3 0 C3.33 0 3.66 0 4 0 C4 2.97 4 5.94 4 9 C4.99 9.33 5.98 9.66 7 10 C7 10.66 7 11.32 7 12 C1.125 11.125 1.125 11.125 0 10 C-0.07205511 8.31391034 -0.08386068 6.62499341 -0.0625 4.9375 C-0.05347656 4.01839844 -0.04445313 3.09929687 -0.03515625 2.15234375 C-0.02355469 1.44207031 -0.01195313 0.73179687 0 0 Z " fill="#A9B2BE" transform="translate(114,377)"/>
<path d="M0 0 C-0.66 1.32 -1.32 2.64 -2 4 C-5.3 3.67 -8.6 3.34 -12 3 C-12 2.01 -12 1.02 -12 0 C-10.37585622 -0.19477739 -8.75063577 -0.38059458 -7.125 -0.5625 C-6.22007812 -0.66691406 -5.31515625 -0.77132813 -4.3828125 -0.87890625 C-2 -1 -2 -1 0 0 Z " fill="#1E2228" transform="translate(289,330)"/>
<path d="M0 0 C3.3 0.33 6.6 0.66 10 1 C10 1.33 10 1.66 10 2 C6.7 2 3.4 2 0 2 C0 1.34 0 0.68 0 0 Z M-1 2 C-0.01 2.66 0.98 3.32 2 4 C4.64017635 4.81779841 7.30270591 5.3809489 10 6 C10 6.33 10 6.66 10 7 C8.20741442 6.91306859 6.41584856 6.80489496 4.625 6.6875 C3.62726563 6.62949219 2.62953125 6.57148438 1.6015625 6.51171875 C0.74304688 6.34285156 -0.11546875 6.17398437 -1 6 C-1.66 5.01 -2.32 4.02 -3 3 C-2.34 2.67 -1.68 2.34 -1 2 Z " fill="#4F545B" transform="translate(277,328)"/>
<path d="M0 0 C2.97 0.33 5.94 0.66 9 1 C9 1.99 9 2.98 9 4 C6.03 4 3.06 4 0 4 C-0.33 3.34 -0.66 2.68 -1 2 C-0.67 1.34 -0.34 0.68 0 0 Z " fill="#1F252C" transform="translate(212,330)"/>
<path d="M0 0 C1.98 0.66 3.96 1.32 6 2 C6 2.99 6 3.98 6 5 C3.03 5 0.06 5 -3 5 C-2.01 3.35 -1.02 1.7 0 0 Z " fill="#2C333C" transform="translate(243,329)"/>
<path d="M0 0 C0.99 0.33 1.98 0.66 3 1 C3.33 2.98 3.66 4.96 4 7 C3.34 7 2.68 7 2 7 C1.67 7.99 1.34 8.98 1 10 C-1 8 -1 8 -1.1875 4.4375 C-1 1 -1 1 0 0 Z " fill="#20242A" transform="translate(162,318)"/>
<path d="M0 0 C1.98 0 3.96 0 6 0 C6 1.65 6 3.3 6 5 C3.69 5 1.38 5 -1 5 C-0.67 3.35 -0.34 1.7 0 0 Z " fill="#282F37" transform="translate(397,306)"/>
<path d="M0 0 C0.33 0 0.66 0 1 0 C1.125 7.75 1.125 7.75 0 10 C0.66 10.66 1.32 11.32 2 12 C1.34 13.32 0.68 14.64 0 16 C-0.33 15.34 -0.66 14.68 -1 14 C-1.99 14.495 -1.99 14.495 -3 15 C-3.6875 13.25 -3.6875 13.25 -4 11 C-3.54625 10.401875 -3.0925 9.80375 -2.625 9.1875 C-0.43748548 6.24276892 -0.34573255 3.59561853 0 0 Z " fill="#494D57" transform="translate(344,318)"/>
<path d="M0 0 C0.556875 0.226875 1.11375 0.45375 1.6875 0.6875 C1.3575 1.6775 1.0275 2.6675 0.6875 3.6875 C2.0075 4.0175 3.3275 4.3475 4.6875 4.6875 C2.0475 5.0175 -0.5925 5.3475 -3.3125 5.6875 C-3.6425 5.0275 -3.9725 4.3675 -4.3125 3.6875 C-5.3025 3.3575 -6.2925 3.0275 -7.3125 2.6875 C-2.88173077 -0.38942308 -2.88173077 -0.38942308 0 0 Z " fill="#383A45" transform="translate(367.3125,306.3125)"/>
<path d="M0 0 C0.99 1.32 1.98 2.64 3 4 C6.465 3.505 6.465 3.505 10 3 C9.67 3.99 9.34 4.98 9 6 C2.56512141 7.33554084 2.56512141 7.33554084 0 5.8125 C-1 4 -1 4 -0.6875 1.8125 C-0.460625 1.214375 -0.23375 0.61625 0 0 Z " fill="#9199A5" transform="translate(294,382)"/>
<path d="M0 0 C0.66 0 1.32 0 2 0 C2.99 3.3 3.98 6.6 5 10 C4.34 10 3.68 10 3 10 C2.67 10.99 2.34 11.98 2 13 C-0.28571429 4.57142857 -0.28571429 4.57142857 0 0 Z " fill="#959DA9" transform="translate(272,375)"/>
<path d="M0 0 C2.97 0 5.94 0 9 0 C8.34 1.32 7.68 2.64 7 4 C4.69 4 2.38 4 0 4 C0 2.68 0 1.36 0 0 Z " fill="#272B34" transform="translate(365,330)"/>
<path d="M0 0 C0 3 0 3 -1 5 C0.32 5.33 1.64 5.66 3 6 C-1.625 9 -1.625 9 -5 9 C-4.50769231 3.46153846 -4.50769231 3.46153846 -1.9375 1.125 C-1.298125 0.75375 -0.65875 0.3825 0 0 Z " fill="#2E343D" transform="translate(292,325)"/>
<path d="M0 0 C1.98 0 3.96 0 6 0 C6 1.65 6 3.3 6 5 C4.02 5 2.04 5 0 5 C0 3.33333333 0 1.66666667 0 0 Z " fill="#2D333B" transform="translate(122,306)"/>
<path d="M0 0 C1.32 0 2.64 0 4 0 C4 2.31 4 4.62 4 7 C2.68 7 1.36 7 0 7 C0 4.69 0 2.38 0 0 Z " fill="#1E2129" transform="translate(238,300)"/>
<path d="M0 0 C0.66 0.33 1.32 0.66 2 1 C1.71872579 2.48117801 1.42466268 3.95993249 1.125 5.4375 C0.96257812 6.26121094 0.80015625 7.08492188 0.6328125 7.93359375 C0.42398438 8.61550781 0.21515625 9.29742187 0 10 C-0.99 10.495 -0.99 10.495 -2 11 C-3.39935013 8.20129973 -3.25265405 6.09501208 -3 3 C-1.5 1.125 -1.5 1.125 0 0 Z " fill="#8E94A1" transform="translate(186,413)"/>
<path d="M0 0 C3.63 0 7.26 0 11 0 C11 0.66 11 1.32 11 2 C8.03 2 5.06 2 2 2 C1.67 3.32 1.34 4.64 1 6 C0.67 6 0.34 6 0 6 C0 4.02 0 2.04 0 0 Z " fill="#8A949E" transform="translate(85,370)"/>
<path d="M0 0 C0.99 1.32 1.98 2.64 3 4 C2.01 4 1.02 4 0 4 C-2.33564933 4.31669821 -4.6693782 4.64820803 -7 5 C-7.33 3.68 -7.66 2.36 -8 1 C-6.576875 1.309375 -6.576875 1.309375 -5.125 1.625 C-4.09375 1.74875 -3.0625 1.8725 -2 2 C-1.34 1.34 -0.68 0.68 0 0 Z " fill="#959BA8" transform="translate(145,421)"/>
<path d="M0 0 C0 0.66 0 1.32 0 2 C1.65 2 3.3 2 5 2 C5 2.33 5 2.66 5 3 C-4.55294118 4.31764706 -4.55294118 4.31764706 -9 4 C-9.66 3.34 -10.32 2.68 -11 2 C-9.66666667 1.66666667 -8.33333333 1.33333333 -7 1 C-6.319375 0.814375 -5.63875 0.62875 -4.9375 0.4375 C-3 0 -3 0 0 0 Z " fill="#D5E0EB" transform="translate(226,409)"/>
<path d="M0 0 C0.66 0 1.32 0 2 0 C5.07692308 6.4 5.07692308 6.4 4.6875 9.4375 C4.460625 9.953125 4.23375 10.46875 4 11 C3.67 9.68 3.34 8.36 3 7 C2.01 7 1.02 7 0 7 C0 4.69 0 2.38 0 0 Z " fill="#B7C1CD" transform="translate(337,370)"/>
<path d="M0 0 C1.134375 0.020625 2.26875 0.04125 3.4375 0.0625 C2.4475 0.5575 2.4475 0.5575 1.4375 1.0625 C1.1075 2.0525 0.7775 3.0425 0.4375 4.0625 C-3.125 5.25 -3.125 5.25 -6.5625 6.0625 C-4.25951087 0.07472826 -4.25951087 0.07472826 0 0 Z " fill="#1F222A" transform="translate(215.5625,306.9375)"/>
<path d="M0 0 C-0.33 1.32 -0.66 2.64 -1 4 C-3.64 4.33 -6.28 4.66 -9 5 C-7.68 3.68 -6.36 2.36 -5 1 C-5.66 0.67 -6.32 0.34 -7 0 C-2.25 -1.125 -2.25 -1.125 0 0 Z " fill="#3A414A" transform="translate(178,330)"/>
<path d="M0 0 C2.4375 0.375 2.4375 0.375 5 1 C5.33 1.66 5.66 2.32 6 3 C4.02 3.99 2.04 4.98 0 6 C-0.66 5.01 -1.32 4.02 -2 3 C-1.34 2.01 -0.68 1.02 0 0 Z " fill="#1E232B" transform="translate(331,307)"/>
<path d="M0 0 C2.97 0 5.94 0 9 0 C9 0.99 9 1.98 9 3 C6.36 3.66 3.72 4.32 1 5 C0.67 3.35 0.34 1.7 0 0 Z " fill="#23232C" transform="translate(137,307)"/>
<path d="M0 0 C0.703125 1.7421875 0.703125 1.7421875 1 4 C-0.328125 6.0703125 -0.328125 6.0703125 -2.25 8.125 C-2.87390625 8.80820313 -3.4978125 9.49140625 -4.140625 10.1953125 C-6 12 -6 12 -9 14 C-7.79618552 11.50638429 -6.54571278 9.31856917 -5 7 C-4.34 7 -3.68 7 -3 7 C-2.690625 6.21625 -2.38125 5.4325 -2.0625 4.625 C-1 2 -1 2 0 0 Z " fill="#D3E2F1" transform="translate(227,204)"/>
<path d="M0 0 C1.65 0 3.3 0 5 0 C5.33 1.32 5.66 2.64 6 4 C3.69 4 1.38 4 -1 4 C-0.67 2.68 -0.34 1.36 0 0 Z " fill="#CCD5E0" transform="translate(311,377)"/>
<path d="M0 0 C0.66 0.33 1.32 0.66 2 1 C2 1.66 2 2.32 2 3 C2.66 3 3.32 3 4 3 C4 3.66 4 4.32 4 5 C1.36 5 -1.28 5 -4 5 C-4 4.01 -4 3.02 -4 2 C-2.68 2 -1.36 2 0 2 C0 1.34 0 0.68 0 0 Z " fill="#DFEDF6" transform="translate(370,312)"/>
<path d="M0 0 C1.65 0 3.3 0 5 0 C5.33 0.66 5.66 1.32 6 2 C6.99 1.67 7.98 1.34 9 1 C7.25 6.75 7.25 6.75 5 9 C4.67 6.36 4.34 3.72 4 1 C2.68 0.67 1.36 0.34 0 0 Z " fill="#3D434A" transform="translate(388,306)"/>
<path d="M0 0 C1.1446875 0.2475 1.1446875 0.2475 2.3125 0.5 C5.00856207 1.00159294 6.44020291 0.8532657 9 0 C8.67 0.99 8.34 1.98 8 3 C5.1875 3.6875 5.1875 3.6875 2 4 C0.125 2.5625 0.125 2.5625 -1 1 C-0.67 0.67 -0.34 0.34 0 0 Z " fill="#929CA8" transform="translate(178,385)"/>
<path d="M0 0 C2.475 0.99 2.475 0.99 5 2 C5 2.99 5 3.98 5 5 C1.80097361 5.08886184 -0.92677456 4.91058531 -4 4 C-4 3.34 -4 2.68 -4 2 C-2.68 1.67 -1.36 1.34 0 1 C0 0.67 0 0.34 0 0 Z " fill="#CCD3E0" transform="translate(194,382)"/>
<path d="M0 0 C3.3 0 6.6 0 10 0 C5.61764706 4.01715686 5.61764706 4.01715686 2.75 3.9375 C1 3 1 3 0 0 Z " fill="#DAE1EE" transform="translate(295,383)"/>
<path d="M0 0 C3.465 1.485 3.465 1.485 7 3 C6.67 3.99 6.34 4.98 6 6 C1.25 5.25 1.25 5.25 -1 3 C-0.67 2.01 -0.34 1.02 0 0 Z " fill="#D4DBE8" transform="translate(101,381)"/>
<path d="M0 0 C0.33 0.99 0.66 1.98 1 3 C0.34 3 -0.32 3 -1 3 C-1 3.66 -1 4.32 -1 5 C-3.97 4.505 -3.97 4.505 -7 4 C-7 3.01 -7 2.02 -7 1 C-4.69 1.33 -2.38 1.66 0 2 C0 1.34 0 0.68 0 0 Z " fill="#D4DAE7" transform="translate(352,376)"/>
<path d="M0 0 C2.31 0.33 4.62 0.66 7 1 C5.02 1.99 5.02 1.99 3 3 C4.32 3.99 5.64 4.98 7 6 C4.03 5.67 1.06 5.34 -2 5 C-1.34 3.35 -0.68 1.7 0 0 Z " fill="#454B54" transform="translate(139,329)"/>
<path d="M0 0 C-0.33 1.65 -0.66 3.3 -1 5 C-2.65 4.67 -4.3 4.34 -6 4 C-5.67 3.01 -5.34 2.02 -5 1 C-3 0 -3 0 0 0 Z " fill="#D5DDE9" transform="translate(99,419)"/>
<path d="M0 0 C0.99 0 1.98 0 3 0 C3 3.63 3 7.26 3 11 C2.34 11 1.68 11 1 11 C0.67 7.37 0.34 3.74 0 0 Z " fill="#848E99" transform="translate(260,414)"/>
<path d="M0 0 C2.97 0.495 2.97 0.495 6 1 C6 1.99 6 2.98 6 4 C3.69 4 1.38 4 -1 4 C-0.67 2.68 -0.34 1.36 0 0 Z " fill="#CFD7E3" transform="translate(203,414)"/>
<path d="M0 0 C0.33 0 0.66 0 1 0 C1.28875 1.11375 1.5775 2.2275 1.875 3.375 C2.69241329 7.00291092 2.69241329 7.00291092 5 9 C-0.53846154 8.38461538 -0.53846154 8.38461538 -2.875 6.4375 C-3.24625 5.963125 -3.6175 5.48875 -4 5 C-2.68 4.67 -1.36 4.34 0 4 C0 2.68 0 1.36 0 0 Z " fill="#D5DEEA" transform="translate(175,380)"/>
<path d="M0 0 C0.33 0 0.66 0 1 0 C1 1.98 1 3.96 1 6 C1.99 6 2.98 6 4 6 C4 6.99 4 7.98 4 9 C2.35 8.67 0.7 8.34 -1 8 C-1.04241723 5.66705225 -1.04092937 3.33297433 -1 1 C-0.67 0.67 -0.34 0.34 0 0 Z " fill="#8F97A3" transform="translate(258,380)"/>
<path d="M0 0 C0 1.32 0 2.64 0 4 C-2.875 4.125 -2.875 4.125 -6 4 C-6.66 3.34 -7.32 2.68 -8 2 C-5.09399739 0.74335022 -3.20395416 0 0 0 Z " fill="#1D222B" transform="translate(149,330)"/>
<path d="M0 0 C0.99 0.33 1.98 0.66 3 1 C3.33 2.65 3.66 4.3 4 6 C2.35 6 0.7 6 -1 6 C-1.042721 4.33388095 -1.04063832 2.66617115 -1 1 C-0.67 0.67 -0.34 0.34 0 0 Z " fill="#272D34" transform="translate(225,309)"/>
<path d="M0 0 C0.66 0 1.32 0 2 0 C1.67 3.63 1.34 7.26 1 11 C0.34 11 -0.32 11 -1 11 C-1.02688151 9.35425434 -1.04634123 7.70838587 -1.0625 6.0625 C-1.07410156 5.14597656 -1.08570313 4.22945313 -1.09765625 3.28515625 C-1 1 -1 1 0 0 Z " fill="#838D98" transform="translate(216,414)"/>
<path d="M0 0 C0.99 0.33 1.98 0.66 3 1 C2.67 3.64 2.34 6.28 2 9 C-0.15377564 6.37801226 -1.40072174 4.35595828 -2 1 C-1.34 0.67 -0.68 0.34 0 0 Z " fill="#D4DDE8" transform="translate(134,412)"/>
<path d="M0 0 C0.33 0 0.66 0 1 0 C1 2.97 1 5.94 1 9 C1.99 9.33 2.98 9.66 4 10 C4 10.66 4 11.32 4 12 C1.03 11.505 1.03 11.505 -2 11 C-1.67 10.34 -1.34 9.68 -1 9 C-0.77532169 7.46331135 -0.59203195 5.92031946 -0.4375 4.375 C-0.35371094 3.55773437 -0.26992187 2.74046875 -0.18359375 1.8984375 C-0.12300781 1.27195312 -0.06242188 0.64546875 0 0 Z " fill="#9CA6B2" transform="translate(170,377)"/>
<path d="M0 0 C2.97 0 5.94 0 9 0 C9 0.33 9 0.66 9 1 C7.35 1.33 5.7 1.66 4 2 C4.66 2.66 5.32 3.32 6 4 C5.01 4.33 4.02 4.66 3 5 C2.01 4.34 1.02 3.68 0 3 C0 2.01 0 1.02 0 0 Z " fill="#D2D9E4" transform="translate(310,382)"/>
<path d="M0 0 C2.64 0 5.28 0 8 0 C8 0.66 8 1.32 8 2 C5 4 5 4 2.3125 3.625 C1.549375 3.41875 0.78625 3.2125 0 3 C0 2.01 0 1.02 0 0 Z " fill="#D6DEEB" transform="translate(103,377)"/>
<path d="M0 0 C-1 3 -1 3 -3 4 C-4.99960012 4.039992 -7.00047242 4.04346799 -9 4 C-8.67 3.01 -8.34 2.02 -8 1 C-5.23735711 0.40267181 -2.83967231 0 0 0 Z " fill="#939BA8" transform="translate(211,422)"/>
<path d="M0 0 C-0.33 1.65 -0.66 3.3 -1 5 C-2.32 5 -3.64 5 -5 5 C-5 3.68 -5 2.36 -5 1 C-3 0 -3 0 0 0 Z " fill="#D4DEE8" transform="translate(160,382)"/>
<path d="M0 0 C0.66 0 1.32 0 2 0 C1.67 2.64 1.34 5.28 1 8 C-0.32 8.33 -1.64 8.66 -3 9 C-3.25532751 5.93606987 -3.21861333 4.36766788 -1.625 1.6875 C-0.820625 0.8521875 -0.820625 0.8521875 0 0 Z " fill="#343942" transform="translate(209,308)"/>
<path d="M0 0 C-0.33 1.65 -0.66 3.3 -1 5 C-2.32 5 -3.64 5 -5 5 C-5 3.68 -5 2.36 -5 1 C-2 0 -2 0 0 0 Z " fill="#D7E0EB" transform="translate(245,419)"/>
<path d="M0 0 C0.99 0 1.98 0 3 0 C2.125 4.75 2.125 4.75 1 7 C0.01 7 -0.98 7 -2 7 C-1.34 4.69 -0.68 2.38 0 0 Z " fill="#949CA8" transform="translate(171,412)"/>
<path d="M0 0 C2.97 0 5.94 0 9 0 C8.01 0.33 7.02 0.66 6 1 C6 1.66 6 2.32 6 3 C5.01 3.33 4.02 3.66 3 4 C2.01 3.34 1.02 2.68 0 2 C0 1.34 0 0.68 0 0 Z " fill="#DEE6F2" transform="translate(179,383)"/>
<path d="M0 0 C0.66 0 1.32 0 2 0 C2 3.3 2 6.6 2 10 C1.34 10 0.68 10 0 10 C-1.125 2.25 -1.125 2.25 0 0 Z " fill="#858E9A" transform="translate(161,378)"/>
<path d="M0 0 C1.65 0 3.3 0 5 0 C4.67 1.32 4.34 2.64 4 4 C2.35 3.67 0.7 3.34 -1 3 C-0.67 2.01 -0.34 1.02 0 0 Z " fill="#D4DDE8" transform="translate(240,414)"/>
<path d="M0 0 C1.65 0 3.3 0 5 0 C5 1.32 5 2.64 5 4 C3.35 4 1.7 4 0 4 C0 2.68 0 1.36 0 0 Z " fill="#D1DBE7" transform="translate(94,414)"/>
<path d="M0 0 C0.99 0 1.98 0 3 0 C2.34 4.29 1.68 8.58 1 13 C0.67 13 0.34 13 0 13 C0 8.71 0 4.42 0 0 Z " fill="#D5DEE9" transform="translate(248,412)"/>
<path d="M0 0 C1.32 1.65 2.64 3.3 4 5 C3.01 5.66 2.02 6.32 1 7 C0.34 6.67 -0.32 6.34 -1 6 C-1.042721 4.33388095 -1.04063832 2.66617115 -1 1 C-0.67 0.67 -0.34 0.34 0 0 Z " fill="#D3DDE9" transform="translate(314,312)"/>
<path d="M0 0 C0.33 0 0.66 0 1 0 C1 4.29 1 8.58 1 13 C-0.65 12.67 -2.3 12.34 -4 12 C-3.01 11.34 -2.02 10.68 -1 10 C-0.41810734 7.57478506 -0.41810734 7.57478506 -0.3125 4.875 C-0.21388672 3.50988281 -0.21388672 3.50988281 -0.11328125 2.1171875 C-0.07589844 1.41851562 -0.03851563 0.71984375 0 0 Z " fill="#A4ABB7" transform="translate(114,412)"/>
<path d="M0 0 C0 0.99 0 1.98 0 3 C-1.65 3.33 -3.3 3.66 -5 4 C-5.66 3.01 -6.32 2.02 -7 1 C-4.53721199 -0.231394 -2.7204945 -0.07159196 0 0 Z " fill="#D5DEE9" transform="translate(160,377)"/>
<path d="M0 0 C2.31 0.33 4.62 0.66 7 1 C6.67 1.99 6.34 2.98 6 4 C4.35 3.67 2.7 3.34 1 3 C0.67 2.01 0.34 1.02 0 0 Z " fill="#1E212A" transform="translate(166,330)"/>
<path d="M0 0 C0.33 0 0.66 0 1 0 C1.144375 0.7425 1.28875 1.485 1.4375 2.25 C1.90187492 4.52027739 2.41863569 6.75759479 3 9 C0.525 8.01 0.525 8.01 -2 7 C-1.34 4.69 -0.68 2.38 0 0 Z " fill="#9CA4B0" transform="translate(276,417)"/>
<path d="M0 0 C0.33 0 0.66 0 1 0 C1.625 2.8125 1.625 2.8125 2 6 C1.01 7.485 1.01 7.485 0 9 C-0.99 9 -1.98 9 -3 9 C-2.01 6.03 -1.02 3.06 0 0 Z " fill="#9CA6B2" transform="translate(244,380)"/>
<path d="M0 0 C2.97 0.495 2.97 0.495 6 1 C6 1.66 6 2.32 6 3 C3.69 3 1.38 3 -1 3 C-0.67 2.01 -0.34 1.02 0 0 Z " fill="#D8E1EC" transform="translate(296,377)"/>
<path d="M0 0 C0.33 0 0.66 0 1 0 C1 2.64 1 5.28 1 8 C0.01 8 -0.98 8 -2 8 C-2.66 7.34 -3.32 6.68 -4 6 C-3.01 5.67 -2.02 5.34 -1 5 C-0.67 3.35 -0.34 1.7 0 0 Z " fill="#A1A9B4" transform="translate(276,407)"/>
<path d="M0 0 C-0.33 0.66 -0.66 1.32 -1 2 C-2.32 2 -3.64 2 -5 2 C-5.33 2.66 -5.66 3.32 -6 4 C-6.66 3.67 -7.32 3.34 -8 3 C-8 2.34 -8 1.68 -8 1 C-5.29120665 -0.35439668 -2.99066732 -0.06501451 0 0 Z " fill="#969FAA" transform="translate(208,412)"/>
<path d="M0 0 C0 0.66 0 1.32 0 2 C-3.08809695 3.76462683 -4.23312136 4 -8 4 C-8 3.34 -8 2.68 -8 2 C-5.09399739 0.74335022 -3.20395416 0 0 0 Z " fill="#8E99A3" transform="translate(319,385)"/>
<path d="M0 0 C2.97 0.495 2.97 0.495 6 1 C6 1.99 6 2.98 6 4 C4.35 3.67 2.7 3.34 1 3 C0.67 2.01 0.34 1.02 0 0 Z " fill="#D7DFEC" transform="translate(344,383)"/>
<path d="M0 0 C2 2 2 2 2.125 4.625 C2.08375 5.40875 2.0425 6.1925 2 7 C1.01 7 0.02 7 -1 7 C-0.67 4.69 -0.34 2.38 0 0 Z " fill="#DAE1ED" transform="translate(280,380)"/>
<path d="M0 0 C2.31 0 4.62 0 7 0 C7.33 0.99 7.66 1.98 8 3 C5.36 2.67 2.72 2.34 0 2 C0 1.34 0 0.68 0 0 Z " fill="#8A93A0" transform="translate(102,375)"/>
<path d="M0 0 C1.32 0 2.64 0 4 0 C4 0.66 4 1.32 4 2 C3.34 2 2.68 2 2 2 C2 2.99 2 3.98 2 5 C1.01 4.67 0.02 4.34 -1 4 C-0.67 2.68 -0.34 1.36 0 0 Z " fill="#DEE8F2" transform="translate(364,323)"/>
<path d="M0 0 C0.99 0 1.98 0 3 0 C3 1.65 3 3.3 3 5 C1.68 5 0.36 5 -1 5 C-0.67 3.35 -0.34 1.7 0 0 Z " fill="#1C2128" transform="translate(207,316)"/>
<path d="M0 0 C1.32 0.33 2.64 0.66 4 1 C3.54625 1.433125 3.0925 1.86625 2.625 2.3125 C0.79975666 4.10798342 0.79975666 4.10798342 -1 7 C-1.625 5.1875 -1.625 5.1875 -2 3 C-1.34 2.01 -0.68 1.02 0 0 Z " fill="#CFD7DF" transform="translate(162,307)"/>
<path d="M0 0 C1.98 0.495 1.98 0.495 4 1 C3.67 2.32 3.34 3.64 3 5 C1.68 4.34 0.36 3.68 -1 3 C-0.67 2.01 -0.34 1.02 0 0 Z " fill="#232932" transform="translate(168,306)"/>
<path d="M0 0 C0.33 0.99 0.66 1.98 1 3 C-0.375 4.5 -0.375 4.5 -2 6 C-2.66 6 -3.32 6 -4 6 C-3.67 4.35 -3.34 2.7 -3 1 C-2.01 0.67 -1.02 0.34 0 0 Z " fill="#1E2229" transform="translate(276,299)"/>
</svg>
